<?xml version="1.0" encoding="UTF-8" standalone="no"?>
<!-- Created with Inkscape (http://www.inkscape.org/) -->

<svg
   xmlns:dc="http://purl.org/dc/elements/1.1/"
   xmlns:cc="http://creativecommons.org/ns#"
   xmlns:rdf="http://www.w3.org/1999/02/22-rdf-syntax-ns#"
   xmlns:svg="http://www.w3.org/2000/svg"
   xmlns="http://www.w3.org/2000/svg"
   xmlns:sodipodi="http://sodipodi.sourceforge.net/DTD/sodipodi-0.dtd"
   xmlns:inkscape="http://www.inkscape.org/namespaces/inkscape"
   width="1000"
   height="1000"
   id="svg6337"
   version="1.1"
   inkscape:version="0.48+devel+osxmenu r12707"
   viewBox="0 0 1000 1000"
   sodipodi:docname="la.svg">
  <defs
     id="defs5498" />
  <sodipodi:namedview
     inkscape:window-height="1002"
     inkscape:window-width="1680"
     inkscape:pageshadow="2"
     inkscape:pageopacity="0.0"
     borderopacity="1.0"
     bordercolor="#666666"
     pagecolor="#ffffff"
     id="base"
     showgrid="false"
     showguides="true"
     inkscape:guide-bbox="true"
     inkscape:zoom="0.32102648"
     inkscape:cx="265.12236"
     inkscape:cy="652.13336"
     inkscape:window-x="0"
     inkscape:window-y="22"
     inkscape:current-layer="layer1"
     inkscape:window-maximized="0">
    <sodipodi:guide
       orientation="horizontal"
       position="-3.1150078,218.05055"
       id="guide5596" />
    <sodipodi:guide
       orientation="0,1"
       position="311.50078,922.04232"
       id="guide6325" />
  </sodipodi:namedview>
  <metadata
     id="metadata5594">
    <rdf:RDF>
      <cc:Work
         rdf:about="">
        <dc:format>image/svg+xml</dc:format>
        <dc:type
           rdf:resource="http://purl.org/dc/dcmitype/StillImage" />
        <dc:title></dc:title>
      </cc:Work>
    </rdf:RDF>
  </metadata>
  <g
     inkscape:label="Layer 1"
     inkscape:groupmode="layer"
     id="layer1">
    <g
       id="g4626"
       transform="matrix(5.214412,0,0,-5.214412,687.01048,752.27612)" />
    <g
       id="g4360"
       transform="matrix(5.119812,0,0,-5.119812,377.62876,622.68227)">
      <path
         d="m 0,0 c 3.063,-0.833 5.683,-2.278 7.572,-4.172 1.589,-1.594 2.724,-3.601 3.193,-5.649 0.467,-2.039 0.296,-4.153 -0.481,-5.951 -0.757,-1.75 -2.115,-3.204 -3.722,-3.988 -1.55,-0.757 -3.392,-0.894 -4.923,-0.372 -1.655,0.566 -3.283,2.004 -4.469,3.945 -1.188,1.95 -2.043,4.485 -2.613,7.749 -0.548,3.131 -0.728,6.265 -0.548,9.312 C -3.817,0.79 -1.835,0.497 0,0 M 102.428,14.163 C 99.646,26.042 93.595,36.862 84.928,45.45 L 75.472,35.91 C 82.247,29.195 87.176,20.386 89.35,11.102 90.604,5.741 90.842,0.768 90.052,-3.679 c -0.84,-4.745 -2.934,-8.982 -5.892,-11.936 -3.104,-3.098 -7.311,-4.839 -11.251,-4.669 -2.217,0.096 -4.424,0.774 -6.384,1.958 -1.952,1.179 -3.649,2.857 -4.903,4.854 -2.647,4.215 -3.409,9.864 -3.963,15.289 L 57.502,3.386 C 56.878,9.66 56.231,16.15 53.41,22.446 51.08,27.645 47.417,32.235 42.813,35.722 38.33,39.118 32.991,41.431 27.372,42.416 16.532,44.314 4.854,41.096 -3.858,33.802 -10.074,28.601 -14.703,21.57 -17.256,13.46 -27.805,11.61 -37.571,6.897 -45.255,-0.14 -54.96,-9.026 -60.94,-21.408 -61.663,-34.112 c -0.813,-14.286 5.111,-28.891 15.846,-39.07 10.121,-9.599 24.224,-15.091 38.725,-15.091 l 0.231,0 c 17.808,0.072 35.118,8.389 46.301,22.25 l -10.456,8.436 C 20.443,-68.177 6.687,-74.786 -6.916,-74.84 l -0.178,0 c -11.094,0 -21.831,4.151 -29.48,11.404 -7.904,7.496 -12.269,18.171 -11.677,28.561 0.524,9.237 4.924,18.288 12.068,24.83 4.683,4.288 10.423,7.438 16.698,9.23 -0.04,-3.288 0.23,-6.617 0.809,-9.933 0.864,-4.953 2.297,-9.019 4.379,-12.434 2.834,-4.645 6.952,-8.076 11.595,-9.663 4.893,-1.67 10.418,-1.301 15.157,1.014 4.508,2.201 8.115,6.009 10.157,10.725 1.905,4.406 2.349,9.478 1.246,14.285 -1.039,4.535 -3.38,8.73 -6.773,12.134 -3.546,3.554 -8.234,6.2 -13.559,7.65 -1.95,0.529 -3.97,0.905 -6.084,1.128 1.835,3.675 4.347,6.92 7.323,9.41 5.713,4.784 13.296,6.909 20.29,5.682 3.524,-0.617 6.86,-2.059 9.646,-4.169 2.811,-2.129 5.041,-4.917 6.45,-8.062 1.93,-4.305 2.442,-9.449 2.984,-14.896 l 0.161,-1.602 c 0.683,-6.699 1.763,-14.404 5.951,-21.07 2.366,-3.768 5.594,-6.953 9.336,-9.211 3.878,-2.342 8.282,-3.682 12.735,-3.878 7.73,-0.342 15.523,2.788 21.331,8.581 4.892,4.883 8.312,11.666 9.63,19.1 1.109,6.25 0.823,13.044 -0.851,20.187"
         style="fill:#231f20;fill-opacity:1;fill-rule:nonzero;stroke:none"
         id="path4362"
         inkscape:connector-curvature="0" />
    </g>
  </g>
</svg>
