<?xml version="1.0" encoding="UTF-8" standalone="no"?>
<!-- Created with Inkscape (http://www.inkscape.org/) -->

<svg
   xmlns:dc="http://purl.org/dc/elements/1.1/"
   xmlns:cc="http://creativecommons.org/ns#"
   xmlns:rdf="http://www.w3.org/1999/02/22-rdf-syntax-ns#"
   xmlns:svg="http://www.w3.org/2000/svg"
   xmlns="http://www.w3.org/2000/svg"
   xmlns:sodipodi="http://sodipodi.sourceforge.net/DTD/sodipodi-0.dtd"
   xmlns:inkscape="http://www.inkscape.org/namespaces/inkscape"
   width="1000"
   height="1000"
   id="svg6337"
   version="1.1"
   inkscape:version="0.48+devel+osxmenu r12707"
   viewBox="0 0 1000 1000"
   sodipodi:docname="v_uu.svg">
  <defs
     id="defs5498" />
  <sodipodi:namedview
     inkscape:window-height="1002"
     inkscape:window-width="1680"
     inkscape:pageshadow="2"
     inkscape:pageopacity="0.0"
     borderopacity="1.0"
     bordercolor="#666666"
     pagecolor="#ffffff"
     id="base"
     showgrid="false"
     showguides="true"
     inkscape:guide-bbox="true"
     inkscape:zoom="0.454"
     inkscape:cx="366.82646"
     inkscape:cy="472.14277"
     inkscape:window-x="0"
     inkscape:window-y="22"
     inkscape:current-layer="layer1"
     inkscape:window-maximized="0">
    <sodipodi:guide
       orientation="horizontal"
       position="-3.1150078,218.05055"
       id="guide5596" />
    <sodipodi:guide
       orientation="0,1"
       position="311.50078,922.04232"
       id="guide6325" />
  </sodipodi:namedview>
  <metadata
     id="metadata5594">
    <rdf:RDF>
      <cc:Work
         rdf:about="">
        <dc:format>image/svg+xml</dc:format>
        <dc:type
           rdf:resource="http://purl.org/dc/dcmitype/StillImage" />
        <dc:title />
      </cc:Work>
    </rdf:RDF>
  </metadata>
  <g
     inkscape:label="Layer 1"
     inkscape:groupmode="layer"
     id="layer1">
    <g
       id="g4626"
       transform="matrix(5.214412,0,0,-5.214412,687.01048,752.27612)" />
    <g
       id="g3810"
       transform="matrix(5.7070403,0,0,-5.7070403,197.17287,341.77957)">
      <path
         d="m 0,0 c 3.165,0 5.74,-2.576 5.74,-5.74 0,-3.166 -2.575,-5.741 -5.74,-5.741 -3.166,0 -5.741,2.575 -5.741,5.741 C -5.741,-2.576 -3.166,0 0,0 m 90.64,-73.328 -0.447,-0.401 c -18.357,-16.487 -43.032,-26.319 -67.696,-26.975 -7.305,-0.192 -13.507,0.415 -19.02,1.871 -6.191,1.638 -11.603,4.446 -15.651,8.125 -4.32,3.922 -7.157,8.895 -7.988,14.001 -0.846,5.213 0.496,10.5 3.592,14.141 2.138,2.513 5.329,4.575 9.486,6.128 3.976,1.486 8.303,2.349 12.89,3.263 l 0.57,0.112 c 4.595,0.915 10.313,2.054 15.745,4.242 6.429,2.59 11.493,6.256 15.053,10.895 4.169,5.44 6.305,12.348 6.016,19.449 -0.268,6.507 -2.636,13.111 -6.669,18.596 -5.905,8.029 -15.146,13.494 -25.353,14.995 -1.773,0.261 -3.538,0.393 -5.246,0.393 -4.961,0 -9.453,-1.075 -13.353,-3.197 -1.094,-0.595 -2.145,-1.281 -3.084,-2.009 l -0.662,-0.459 0.026,-0.046 C -12.77,8.458 -14.164,6.93 -15.299,5.251 -17.492,2.015 -18.68,-1.69 -18.733,-5.462 c -0.077,-5.64 2.49,-11.136 6.864,-14.7 3.314,-2.7 7.524,-4.187 11.855,-4.187 1.316,0 2.628,0.14 3.9,0.415 4.285,0.927 8.133,3.347 10.835,6.814 2.681,3.44 4.096,7.742 3.983,12.112 -0.023,0.91 -0.112,1.82 -0.266,2.717 2.651,-1.605 4.934,-3.659 6.652,-5.995 2.378,-3.233 3.771,-7.059 3.923,-10.773 0.153,-3.735 -0.976,-7.465 -3.097,-10.232 -1.992,-2.597 -5.053,-4.741 -9.099,-6.372 -3.897,-1.568 -8.116,-2.47 -13.227,-3.486 L 3.036,-39.26 C -1.898,-40.244 -7,-41.261 -12.052,-43.148 -18.5,-45.559 -23.656,-49 -27.378,-53.374 c -5.757,-6.77 -8.293,-16.344 -6.787,-25.611 1.343,-8.261 5.766,-16.156 12.454,-22.228 5.725,-5.2 13.181,-9.119 21.563,-11.335 6.053,-1.6 12.616,-2.379 20.064,-2.379 0.971,0 1.957,0.013 2.958,0.041 27.981,0.743 55.974,11.897 76.799,30.601 l 0.447,0.401 -9.48,10.556 z"
         style="fill:#231f20;fill-opacity:1;fill-rule:nonzero;stroke:none"
         id="path3812"
         inkscape:connector-curvature="0" />
    </g>
    <g
       id="g3814"
       transform="matrix(5.7070403,0,0,-5.7070403,659.31756,592.92815)">
      <path
         d="M 0,0 C 0.03,3.165 2.63,5.714 5.796,5.684 8.961,5.653 11.511,3.054 11.48,-0.111 11.45,-3.276 8.849,-5.827 5.684,-5.796 2.519,-5.765 -0.031,-3.165 0,0 m 76.507,-20.904 c -5.221,-0.797 -10.494,0.597 -14.105,3.729 -2.492,2.161 -4.523,5.372 -6.036,9.544 -1.448,3.989 -2.267,8.326 -3.137,12.922 l -0.108,0.57 c -0.87,4.603 -1.953,10.332 -4.088,15.785 -2.528,6.455 -6.143,11.554 -10.748,15.159 -5.4,4.221 -12.286,6.424 -19.39,6.204 C 12.386,42.804 5.759,40.5 0.235,36.52 -7.851,30.694 -13.405,21.507 -15.006,11.315 c -0.278,-1.771 -0.427,-3.534 -0.443,-5.242 -0.049,-4.961 0.984,-9.464 3.067,-13.384 0.585,-1.1 1.26,-2.157 1.979,-3.103 l 0.452,-0.667 0.046,0.026 c 1.323,-1.632 2.837,-3.041 4.505,-4.192 3.216,-2.224 6.909,-3.448 10.68,-3.537 5.639,-0.132 11.159,2.381 14.765,6.721 2.732,3.287 4.261,7.482 4.303,11.813 0.013,1.316 -0.115,2.63 -0.378,3.904 -0.885,4.294 -3.267,8.165 -6.708,10.9 -3.414,2.715 -7.702,4.172 -12.073,4.101 -0.91,-0.015 -1.821,-0.094 -2.72,-0.239 1.631,2.635 3.707,4.897 6.06,6.593 3.256,2.346 7.095,3.702 10.81,3.818 3.737,0.116 7.455,-1.048 10.202,-3.197 2.578,-2.017 4.692,-5.098 6.282,-9.159 1.531,-3.912 2.393,-8.14 3.36,-13.261 l 0.104,-0.555 c 0.936,-4.944 1.904,-10.055 3.742,-15.125 2.348,-6.471 5.739,-11.66 10.076,-15.424 6.713,-5.822 16.263,-8.452 25.544,-7.036"
         style="fill:#231f20;fill-opacity:1;fill-rule:nonzero;stroke:none"
         id="path3816"
         inkscape:connector-curvature="0" />
    </g>
  </g>
</svg>
