<?xml version="1.0" encoding="UTF-8" standalone="no"?>
<!-- Created with Inkscape (http://www.inkscape.org/) -->

<svg
   xmlns:dc="http://purl.org/dc/elements/1.1/"
   xmlns:cc="http://creativecommons.org/ns#"
   xmlns:rdf="http://www.w3.org/1999/02/22-rdf-syntax-ns#"
   xmlns:svg="http://www.w3.org/2000/svg"
   xmlns="http://www.w3.org/2000/svg"
   xmlns:sodipodi="http://sodipodi.sourceforge.net/DTD/sodipodi-0.dtd"
   xmlns:inkscape="http://www.inkscape.org/namespaces/inkscape"
   width="1000"
   height="1000"
   id="svg6337"
   version="1.1"
   inkscape:version="0.48+devel+osxmenu r12707"
   viewBox="0 0 1000 1000"
   sodipodi:docname="al.svg">
  <defs
     id="defs5498" />
  <sodipodi:namedview
     inkscape:window-height="1002"
     inkscape:window-width="1680"
     inkscape:pageshadow="2"
     inkscape:pageopacity="0.0"
     borderopacity="1.0"
     bordercolor="#666666"
     pagecolor="#ffffff"
     id="base"
     showgrid="false"
     showguides="true"
     inkscape:guide-bbox="true"
     inkscape:zoom="0.64205296"
     inkscape:cx="371.03263"
     inkscape:cy="465.23289"
     inkscape:window-x="0"
     inkscape:window-y="22"
     inkscape:current-layer="layer1"
     inkscape:window-maximized="0">
    <sodipodi:guide
       orientation="horizontal"
       position="-3.1150078,218.05055"
       id="guide5596" />
    <sodipodi:guide
       orientation="0,1"
       position="311.50078,922.04232"
       id="guide6325" />
  </sodipodi:namedview>
  <metadata
     id="metadata5594">
    <rdf:RDF>
      <cc:Work
         rdf:about="">
        <dc:format>image/svg+xml</dc:format>
        <dc:type
           rdf:resource="http://purl.org/dc/dcmitype/StillImage" />
        <dc:title></dc:title>
      </cc:Work>
    </rdf:RDF>
  </metadata>
  <g
     inkscape:label="Layer 1"
     inkscape:groupmode="layer"
     id="layer1">
    <g
       id="g4626"
       transform="matrix(5.214412,0,0,-5.214412,687.01048,752.27612)" />
    <g
       id="g4430"
       transform="matrix(10.181449,0,0,-10.181449,851.78243,97.631005)">
      <path
         d="m 0,0 c -0.063,-0.374 -0.228,-0.74 -0.462,-1.032 -0.237,-0.295 -0.558,-0.533 -0.907,-0.678 -0.348,-0.142 -0.746,-0.195 -1.12,-0.148 -0.374,0.045 -0.748,0.192 -1.053,0.414 -0.303,0.222 -0.558,0.532 -0.716,0.873 -0.157,0.342 -0.228,0.739 -0.2,1.115 l -0.054,0.004 c 0.049,0.297 0.132,0.567 0.246,0.8 0.303,0.612 0.93,1.096 1.597,1.229 C -2.003,2.71 -1.242,2.508 -0.732,2.06 -0.45,1.812 -0.225,1.479 -0.099,1.123 0.027,0.769 0.062,0.369 0,0 M 4.488,2.753 C 4.083,3.894 3.388,4.918 2.48,5.718 0.822,7.175 -1.461,7.784 -3.626,7.35 -5.784,6.917 -7.655,5.479 -8.632,3.502 -9.135,2.483 -9.402,1.339 -9.427,0.103 c -0.021,-0.975 0.109,-1.985 0.396,-3.092 0.279,-1.071 0.658,-2.057 1.027,-3.009 0.235,-0.611 0.458,-1.189 0.644,-1.762 0.562,-1.729 0.822,-3.528 0.777,-5.344 l 4.867,-0.125 c 0.055,2.204 -0.235,4.385 -0.865,6.495 1.039,-0.051 2.083,0.123 3.048,0.516 1.121,0.456 2.113,1.197 2.869,2.14 0.756,0.944 1.262,2.073 1.464,3.266 0.201,1.194 0.093,2.426 -0.312,3.565"
         style="fill:#110f0d;fill-opacity:1;fill-rule:nonzero;stroke:none"
         id="path4432"
         inkscape:connector-curvature="0" />
    </g>
  </g>
</svg>
