<?xml version="1.0" encoding="UTF-8" standalone="no"?>
<!-- Created with Inkscape (http://www.inkscape.org/) -->

<svg
   xmlns:dc="http://purl.org/dc/elements/1.1/"
   xmlns:cc="http://creativecommons.org/ns#"
   xmlns:rdf="http://www.w3.org/1999/02/22-rdf-syntax-ns#"
   xmlns:svg="http://www.w3.org/2000/svg"
   xmlns="http://www.w3.org/2000/svg"
   xmlns:sodipodi="http://sodipodi.sourceforge.net/DTD/sodipodi-0.dtd"
   xmlns:inkscape="http://www.inkscape.org/namespaces/inkscape"
   width="1000"
   height="1000"
   id="svg6337"
   version="1.1"
   inkscape:version="0.48+devel+osxmenu r12707"
   viewBox="0 0 1000 1000"
   sodipodi:docname="ee.svg">
  <defs
     id="defs5498" />
  <sodipodi:namedview
     inkscape:window-height="1002"
     inkscape:window-width="1680"
     inkscape:pageshadow="2"
     inkscape:pageopacity="0.0"
     borderopacity="1.0"
     bordercolor="#666666"
     pagecolor="#ffffff"
     id="base"
     showgrid="false"
     showguides="true"
     inkscape:guide-bbox="true"
     inkscape:zoom="0.32102648"
     inkscape:cx="-251.96894"
     inkscape:cy="652.13336"
     inkscape:window-x="0"
     inkscape:window-y="22"
     inkscape:current-layer="layer1"
     inkscape:window-maximized="0">
    <sodipodi:guide
       orientation="horizontal"
       position="-3.1150078,218.05055"
       id="guide5596" />
    <sodipodi:guide
       orientation="0,1"
       position="311.50078,922.04232"
       id="guide6325" />
  </sodipodi:namedview>
  <metadata
     id="metadata5594">
    <rdf:RDF>
      <cc:Work
         rdf:about="">
        <dc:format>image/svg+xml</dc:format>
        <dc:type
           rdf:resource="http://purl.org/dc/dcmitype/StillImage" />
        <dc:title></dc:title>
      </cc:Work>
    </rdf:RDF>
  </metadata>
  <g
     inkscape:label="Layer 1"
     inkscape:groupmode="layer"
     id="layer1">
    <g
       id="g4626"
       transform="matrix(5.214412,0,0,-5.214412,687.01048,752.27612)" />
    <g
       id="g4810"
       transform="matrix(11.5676,0,0,-11.5676,548.46395,664.62404)">
      <path
         d="M 0,0 C 0.294,0.729 0.805,1.389 1.436,1.854 2.067,2.322 2.847,2.616 3.63,2.682 4.411,2.749 5.229,2.589 5.93,2.236 6.632,1.882 7.245,1.319 7.656,0.648 8.322,-0.433 8.469,-1.848 8.043,-3.044 7.617,-4.239 6.606,-5.238 5.409,-5.651 4.902,-5.827 4.347,-5.908 3.773,-5.896 3.42,-5.878 3.07,-5.817 2.735,-5.715 c -0.752,0.23 -1.451,0.68 -1.97,1.271 -0.52,0.588 -0.878,1.338 -1.012,2.113 C -0.38,-1.556 -0.291,-0.729 0,0 m -32.503,-1.367 c 0.064,0.792 0.36,1.581 0.831,2.219 0.472,0.639 1.138,1.154 1.875,1.451 0.511,0.204 1.07,0.307 1.624,0.307 0.245,0 0.493,-0.02 0.733,-0.061 0.782,-0.136 1.54,-0.501 2.133,-1.029 0.95,-0.843 1.507,-2.154 1.452,-3.422 -0.054,-1.268 -0.72,-2.526 -1.738,-3.282 -0.382,-0.287 -0.826,-0.512 -1.305,-0.672 -0.405,-0.126 -0.829,-0.196 -1.248,-0.198 l -0.036,0 c -0.783,0 -1.58,0.222 -2.248,0.627 -0.681,0.412 -1.253,1.03 -1.614,1.738 -0.36,0.706 -0.524,1.532 -0.459,2.322 m 67.512,14.278 c -1.608,5.273 -4.964,9.942 -9.449,13.147 -2.389,1.705 -4.954,2.911 -7.623,3.583 C 14.11,30.605 9.908,30.443 6.102,29.184 2.34,27.94 -1.047,25.676 -3.69,22.636 c -0.021,-0.024 -0.039,-0.049 -0.06,-0.073 -2.623,2.7 -5.785,4.831 -9.302,6.246 -6.301,2.537 -13.426,2.417 -19.056,-0.318 -5.558,-2.698 -9.82,-7.962 -11.398,-14.076 -1.535,-5.947 -0.544,-12.441 2.72,-17.821 1.974,-3.255 4.544,-5.635 7.432,-6.878 1.533,-0.661 3.158,-1.005 4.744,-1.005 0.226,0 0.453,0.007 0.677,0.022 0.932,0.057 1.836,0.233 2.691,0.522 0.741,0.241 1.452,0.574 2.117,0.995 l -0.002,0.005 c 0.209,0.133 0.414,0.273 0.614,0.422 2.266,1.685 3.691,4.377 3.811,7.2 0.12,2.821 -1.068,5.625 -3.18,7.499 -1.32,1.174 -2.936,1.951 -4.675,2.255 -1.738,0.303 -3.522,0.115 -5.16,-0.543 -1.637,-0.655 -3.057,-1.754 -4.105,-3.174 -0.659,-0.893 -1.153,-1.889 -1.464,-2.944 -1.777,3.801 -2.241,8.218 -1.226,12.156 1.207,4.669 4.442,8.678 8.657,10.727 4.343,2.108 9.904,2.172 14.878,0.169 3.131,-1.259 6.007,-3.305 8.257,-5.846 -0.988,-1.891 -1.736,-3.919 -2.19,-6.033 -0.814,-3.798 -0.702,-7.828 0.323,-11.651 0.999,-3.719 2.71,-6.638 5.086,-8.68 1.442,-1.24 3.121,-2.122 4.855,-2.555 0.756,-0.189 1.518,-0.291 2.272,-0.312 0.122,-0.004 0.245,-0.007 0.366,-0.007 0.803,0 1.607,0.102 2.391,0.309 l -0.002,0.01 c 0.24,0.062 0.478,0.134 0.711,0.215 2.683,0.926 4.854,3.078 5.808,5.752 0.954,2.672 0.636,5.709 -0.849,8.126 C 11.132,4.842 9.821,6.048 8.254,6.839 6.69,7.631 4.938,7.97 3.193,7.821 1.447,7.674 -0.222,7.044 -1.63,6.003 -2.563,5.314 -3.357,4.461 -3.976,3.492 c -0.452,2.525 -0.418,5.111 0.11,7.568 0.656,3.054 2.061,5.887 4.066,8.19 2.037,2.342 4.638,4.083 7.522,5.037 2.886,0.956 6.066,1.081 8.955,0.353 2.042,-0.515 4.022,-1.451 5.884,-2.782 3.567,-2.546 6.235,-6.257 7.515,-10.451 1.278,-4.193 1.133,-8.762 -0.404,-12.866 L 34.5,-3.271 c 1.935,5.161 2.117,10.909 0.509,16.182"
         style="fill:#110f0d;fill-opacity:1;fill-rule:nonzero;stroke:none"
         id="path4812"
         inkscape:connector-curvature="0" />
    </g>
  </g>
</svg>
