<?xml version="1.0" encoding="UTF-8" standalone="no"?>
<!-- Created with Inkscape (http://www.inkscape.org/) -->

<svg
   xmlns:dc="http://purl.org/dc/elements/1.1/"
   xmlns:cc="http://creativecommons.org/ns#"
   xmlns:rdf="http://www.w3.org/1999/02/22-rdf-syntax-ns#"
   xmlns:svg="http://www.w3.org/2000/svg"
   xmlns="http://www.w3.org/2000/svg"
   xmlns:sodipodi="http://sodipodi.sourceforge.net/DTD/sodipodi-0.dtd"
   xmlns:inkscape="http://www.inkscape.org/namespaces/inkscape"
   width="1000"
   height="1000"
   id="svg6337"
   version="1.1"
   inkscape:version="0.48+devel+osxmenu r12707"
   viewBox="0 0 1000 1000"
   sodipodi:docname="fa.svg">
  <defs
     id="defs5498" />
  <sodipodi:namedview
     inkscape:window-height="1002"
     inkscape:window-width="1680"
     inkscape:pageshadow="2"
     inkscape:pageopacity="0.0"
     borderopacity="1.0"
     bordercolor="#666666"
     pagecolor="#ffffff"
     id="base"
     showgrid="false"
     showguides="true"
     inkscape:guide-bbox="true"
     inkscape:zoom="0.32102648"
     inkscape:cx="-251.96894"
     inkscape:cy="652.13336"
     inkscape:window-x="0"
     inkscape:window-y="22"
     inkscape:current-layer="layer1"
     inkscape:window-maximized="0">
    <sodipodi:guide
       orientation="horizontal"
       position="-3.1150078,218.05055"
       id="guide5596" />
    <sodipodi:guide
       orientation="0,1"
       position="311.50078,922.04232"
       id="guide6325" />
  </sodipodi:namedview>
  <metadata
     id="metadata5594">
    <rdf:RDF>
      <cc:Work
         rdf:about="">
        <dc:format>image/svg+xml</dc:format>
        <dc:type
           rdf:resource="http://purl.org/dc/dcmitype/StillImage" />
        <dc:title></dc:title>
      </cc:Work>
    </rdf:RDF>
  </metadata>
  <g
     inkscape:label="Layer 1"
     inkscape:groupmode="layer"
     id="layer1">
    <g
       id="g4626"
       transform="matrix(5.214412,0,0,-5.214412,687.01048,752.27612)" />
    <g
       id="g4938"
       transform="matrix(5.3246885,0,0,-5.3246885,677.89715,292.8641)">
      <path
         d="m 0,0 c -6.245,-0.107 -12.282,-3.398 -15.757,-8.59 -2.198,-3.283 -3.472,-7.31 -3.894,-12.316 l -0.022,-0.541 c 0,0 0.04,-30.434 0.04,-51.234 0,-2.03 -2.441,-5.981 -6.913,-5.981 l -14.617,0 0,53.966 7.491,-0.003 0.004,12.963 -7.483,0.006 c 0.03,2.876 0.11,5.497 0.537,7.944 0.452,2.611 1.281,4.973 2.463,7.017 2.316,4.01 6.414,7.269 11.538,9.176 4.289,1.597 7.244,2.407 11.5,2.407 l 0,12.987 c -6.166,0 -10.549,-1.183 -16.03,-3.223 -7.944,-2.96 -14.427,-8.23 -18.252,-14.847 -1.949,-3.371 -3.302,-7.172 -4.017,-11.297 -0.589,-3.396 -0.694,-6.73 -0.731,-10.16 l -7.461,0.004 -0.005,-12.964 7.459,-0.004 0,-53.972 -15.047,0 0.082,49.02 c 0,3.163 -0.208,7.34 -1.818,11.633 -1.566,4.173 -4.439,7.904 -8.089,10.5 -4.699,3.342 -10.728,4.893 -16.552,4.254 -4.828,-0.529 -9.434,-2.539 -12.972,-5.653 -3.797,-3.344 -6.316,-7.868 -7.089,-12.735 -0.682,-4.276 0.031,-8.673 2.006,-12.379 2.117,-3.97 5.697,-7.093 9.83,-8.569 3.559,-1.27 7.505,-1.34 11.1,-0.199 3.604,1.142 6.788,3.472 8.965,6.562 l -10.372,7.306 c -0.58,-0.824 -1.462,-1.469 -2.426,-1.775 -0.959,-0.305 -2.054,-0.285 -3.003,0.053 -1.174,0.421 -2.257,1.387 -2.898,2.588 -0.672,1.265 -0.919,2.874 -0.672,4.417 0.305,1.933 1.378,3.832 2.943,5.21 1.596,1.405 3.717,2.316 5.973,2.564 2.763,0.304 5.617,-0.418 7.811,-1.982 1.614,-1.147 2.88,-2.788 3.566,-4.616 0.698,-1.86 1.01,-4.077 1.01,-7.171 l -0.104,-61.715 27.756,0 0,-18.067 12.987,0 0,18.067 14.617,0 c 11.551,0 19.598,9.839 19.598,18.668 0,19.629 -0.034,47.835 -0.04,50.965 0.253,2.675 0.833,4.663 1.774,6.07 1.161,1.736 3.344,2.925 5.435,2.96 2.112,0.015 4.311,-1.076 5.535,-2.771 l 10.286,7.425 C 12.39,-2.969 6.252,0.136 0,0"
         style="fill:#231f20;fill-opacity:1;fill-rule:nonzero;stroke:none"
         id="path4940"
         inkscape:connector-curvature="0" />
    </g>
  </g>
</svg>
