<?xml version="1.0" encoding="UTF-8" standalone="no"?>
<!-- Created with Inkscape (http://www.inkscape.org/) -->

<svg
   xmlns:dc="http://purl.org/dc/elements/1.1/"
   xmlns:cc="http://creativecommons.org/ns#"
   xmlns:rdf="http://www.w3.org/1999/02/22-rdf-syntax-ns#"
   xmlns:svg="http://www.w3.org/2000/svg"
   xmlns="http://www.w3.org/2000/svg"
   xmlns:sodipodi="http://sodipodi.sourceforge.net/DTD/sodipodi-0.dtd"
   xmlns:inkscape="http://www.inkscape.org/namespaces/inkscape"
   width="1000"
   height="1000"
   id="svg6337"
   version="1.1"
   inkscape:version="0.48+devel+osxmenu r12707"
   viewBox="0 0 1000 1000"
   sodipodi:docname="ga.svg">
  <defs
     id="defs5498" />
  <sodipodi:namedview
     inkscape:window-height="1002"
     inkscape:window-width="1680"
     inkscape:pageshadow="2"
     inkscape:pageopacity="0.0"
     borderopacity="1.0"
     bordercolor="#666666"
     pagecolor="#ffffff"
     id="base"
     showgrid="false"
     showguides="true"
     inkscape:guide-bbox="true"
     inkscape:zoom="0.32102648"
     inkscape:cx="-251.96894"
     inkscape:cy="652.13336"
     inkscape:window-x="0"
     inkscape:window-y="22"
     inkscape:current-layer="layer1"
     inkscape:window-maximized="0">
    <sodipodi:guide
       orientation="horizontal"
       position="-3.1150078,218.05055"
       id="guide5596" />
    <sodipodi:guide
       orientation="0,1"
       position="311.50078,922.04232"
       id="guide6325" />
  </sodipodi:namedview>
  <metadata
     id="metadata5594">
    <rdf:RDF>
      <cc:Work
         rdf:about="">
        <dc:format>image/svg+xml</dc:format>
        <dc:type
           rdf:resource="http://purl.org/dc/dcmitype/StillImage" />
        <dc:title></dc:title>
      </cc:Work>
    </rdf:RDF>
  </metadata>
  <g
     inkscape:label="Layer 1"
     inkscape:groupmode="layer"
     id="layer1">
    <g
       id="g4626"
       transform="matrix(5.214412,0,0,-5.214412,687.01048,752.27612)" />
    <g
       id="g4918"
       transform="matrix(5.7805443,0,0,-5.7805443,247.85659,792.3025)"
       style="fill:#000000">
      <path
         d="m 0,0 c -3.781,0 -7.578,0.694 -11.155,2.102 -8.069,3.174 -14.859,9.821 -18.629,18.231 -3.596,8.026 -4.385,17.314 -2.222,26.151 2.065,8.428 6.814,16.207 13.373,21.906 7.795,6.769 18.07,10.422 28.123,10.017 L 9.001,66.163 c -7.003,0.286 -14.137,-2.282 -19.598,-7.023 -4.662,-4.051 -8.039,-9.582 -9.507,-15.572 -1.496,-6.111 -0.948,-12.753 1.504,-18.222 2.471,-5.513 6.818,-9.83 11.933,-11.841 5.037,-1.981 10.788,-1.614 15.383,0.986 3.711,2.105 7.168,5.909 9.995,11.002 2.748,4.95 4.655,10.462 6.675,16.296 l 0.034,0.099 c 2.004,5.795 4.276,12.365 7.631,18.339 4.02,7.157 9.001,12.411 14.81,15.617 6.795,3.752 15.023,4.677 22.578,2.532 7.294,-2.072 13.781,-6.853 18.266,-13.465 4.248,-6.26 6.57,-14.047 6.542,-21.93 C 95.22,35.439 93.008,27.71 89.015,21.22 85.37,15.292 80.325,10.404 74.42,7.077 68.469,3.724 61.769,2.013 55.012,2.156 l 0.242,12.253 c 4.545,-0.076 9.105,1.066 13.152,3.344 4.096,2.309 7.613,5.727 10.171,9.886 2.829,4.598 4.396,10.063 4.414,15.387 0.019,5.44 -1.552,10.768 -4.427,15.005 -2.829,4.17 -7.012,7.29 -11.473,8.56 -4.466,1.265 -9.316,0.728 -13.306,-1.475 C 50.056,63.057 46.58,59.292 43.736,54.229 40.919,49.21 38.927,43.451 37.001,37.882 l -0.034,-0.1 C 34.864,31.707 32.692,25.428 29.425,19.548 25.45,12.382 20.514,7.094 14.756,3.831 10.271,1.29 5.15,0 0,0 Z"
         style="fill:#000000;stroke:#191a21;stroke-width:1;stroke-linecap:butt;stroke-linejoin:miter;stroke-miterlimit:10;stroke-dasharray:none;stroke-opacity:1"
         id="path4920"
         inkscape:connector-curvature="0" />
    </g>
  </g>
</svg>
