<?xml version="1.0" encoding="UTF-8" standalone="no"?>
<!-- Created with Inkscape (http://www.inkscape.org/) -->

<svg
   xmlns:dc="http://purl.org/dc/elements/1.1/"
   xmlns:cc="http://creativecommons.org/ns#"
   xmlns:rdf="http://www.w3.org/1999/02/22-rdf-syntax-ns#"
   xmlns:svg="http://www.w3.org/2000/svg"
   xmlns="http://www.w3.org/2000/svg"
   xmlns:sodipodi="http://sodipodi.sourceforge.net/DTD/sodipodi-0.dtd"
   xmlns:inkscape="http://www.inkscape.org/namespaces/inkscape"
   width="1000"
   height="1000"
   id="svg6337"
   version="1.1"
   inkscape:version="0.48+devel+osxmenu r12707"
   viewBox="0 0 1000 1000"
   sodipodi:docname="ja.svg">
  <defs
     id="defs5498" />
  <sodipodi:namedview
     inkscape:window-height="1002"
     inkscape:window-width="1680"
     inkscape:pageshadow="2"
     inkscape:pageopacity="0.0"
     borderopacity="1.0"
     bordercolor="#666666"
     pagecolor="#ffffff"
     id="base"
     showgrid="false"
     showguides="true"
     inkscape:guide-bbox="true"
     inkscape:zoom="0.32102648"
     inkscape:cx="-251.96894"
     inkscape:cy="652.13336"
     inkscape:window-x="0"
     inkscape:window-y="22"
     inkscape:current-layer="layer1"
     inkscape:window-maximized="0">
    <sodipodi:guide
       orientation="horizontal"
       position="-3.1150078,218.05055"
       id="guide5596" />
    <sodipodi:guide
       orientation="0,1"
       position="311.50078,922.04232"
       id="guide6325" />
  </sodipodi:namedview>
  <metadata
     id="metadata5594">
    <rdf:RDF>
      <cc:Work
         rdf:about="">
        <dc:format>image/svg+xml</dc:format>
        <dc:type
           rdf:resource="http://purl.org/dc/dcmitype/StillImage" />
        <dc:title></dc:title>
      </cc:Work>
    </rdf:RDF>
  </metadata>
  <g
     inkscape:label="Layer 1"
     inkscape:groupmode="layer"
     id="layer1">
    <g
       id="g4626"
       transform="matrix(5.214412,0,0,-5.214412,687.01048,752.27612)" />
    <g
       id="g4380"
       transform="matrix(4.6958523,0,0,-4.6958523,546.11547,397.0722)"
       style="fill:#1a1a1a">
      <path
         d="m 0,0 c -3.989,0 -7.225,3.235 -7.225,7.228 0,3.991 3.236,7.227 7.225,7.227 3.992,0 7.227,-3.236 7.227,-7.227 C 7.227,3.235 3.992,0 0,0 Z m -0.583,-57.299 c 2.882,0.205 5.577,-0.478 7.403,-1.865 0.853,-0.652 1.526,-1.452 1.938,-2.315 0.379,-0.784 0.543,-1.636 0.463,-2.404 -0.071,-0.711 -0.365,-1.463 -0.825,-2.112 -0.509,-0.716 -1.226,-1.336 -2.079,-1.8 -1.834,-0.996 -4.309,-1.24 -6.796,-0.671 -2.843,0.655 -5.525,2.337 -7.355,4.613 -0.853,1.064 -1.542,2.283 -2.034,3.576 3.362,1.775 6.483,2.779 9.285,2.978 z M 36.95,31.539 37.209,46.792 C 31.424,46.885 25.601,46.399 19.91,45.343 10.829,43.652 3.424,40.748 -2.731,36.467 -5.265,34.702 -7.543,32.71 -9.534,30.546 c -8.6,-0.101 -17.13,-3.332 -23.556,-9.107 -1.484,-1.334 -2.846,-2.793 -4.073,-4.351 -0.787,1.002 -1.63,1.961 -2.527,2.868 -6.75,6.826 -16.508,10.696 -26.106,10.35 -6.289,-0.23 -12.018,-2.155 -16.58,-5.568 -5.418,-4.053 -8.923,-10.261 -9.379,-16.603 -0.436,-6.007 1.857,-12.169 6.125,-16.489 4.21,-4.256 10.068,-6.625 16.128,-6.459 6.165,0.155 12.244,3.037 16.264,7.711 l -11.563,9.948 c -1.239,-1.436 -3.187,-2.361 -5.086,-2.408 -1.803,-0.051 -3.67,0.695 -4.893,1.933 -1.206,1.219 -1.881,3.008 -1.759,4.667 0.139,1.965 1.406,4.067 3.305,5.487 2.03,1.521 4.869,2.419 7.989,2.535 5.415,0.192 10.903,-1.985 14.71,-5.831 3.396,-3.436 5.45,-8.214 5.665,-13.053 -0.03,-0.77 -0.034,-1.541 -0.009,-2.311 l 15.243,-0.13 c 0.034,0.758 0.044,1.52 0.03,2.281 0.308,5.283 2.797,10.558 6.714,14.078 1.36,1.223 2.913,2.255 4.583,3.066 -0.462,-2.748 -0.512,-5.421 -0.139,-7.969 0.568,-3.833 2.094,-7.343 4.411,-10.151 3.222,-3.902 7.963,-6.378 13.006,-6.794 0.51,-0.041 1.02,-0.062 1.527,-0.062 0.615,0 1.224,0.035 1.83,0.092 -1.342,-1.521 -2.903,-2.931 -4.669,-4.155 -3.855,-2.673 -8.642,-4.592 -14.233,-5.71 -4.706,-0.937 -10.078,-1.336 -16.897,-1.258 -1.988,0.025 -3.986,0.08 -5.985,0.138 -9.405,0.271 -19.129,0.551 -28.793,-2.449 -6.924,-2.151 -12.861,-5.801 -17.166,-10.549 -5.204,-5.748 -7.988,-13.167 -7.636,-20.355 0.213,-4.292 1.527,-8.567 3.795,-12.367 2.105,-3.522 5.065,-6.666 8.555,-9.093 6.182,-4.298 14.162,-6.434 22.471,-6.018 6.708,0.34 13.738,2.296 20.897,5.82 5.31,2.613 10.246,5.855 14.607,8.899 0.847,-1.616 1.853,-3.156 3.003,-4.587 3.994,-4.969 9.619,-8.494 15.832,-9.924 2.022,-0.465 4.053,-0.693 6.049,-0.693 4.069,0 7.998,0.954 11.44,2.826 2.885,1.567 5.388,3.767 7.235,6.371 2.002,2.818 3.237,6.077 3.572,9.429 0.357,3.562 -0.299,7.201 -1.892,10.524 -1.456,3.029 -3.687,5.74 -6.454,7.847 -4.806,3.661 -11.11,5.412 -17.721,4.945 -5.028,-0.358 -10.297,-1.998 -15.653,-4.881 -3.997,-2.145 -7.559,-4.681 -11.007,-7.134 l -0.915,-0.649 c -4.62,-3.28 -9.573,-6.697 -14.832,-9.288 -5.284,-2.6 -10.305,-4.034 -14.924,-4.268 -4.96,-0.251 -9.574,0.926 -13.002,3.309 -1.724,1.198 -3.162,2.715 -4.163,4.388 -0.993,1.662 -1.564,3.495 -1.654,5.297 -0.155,3.129 1.227,6.63 3.703,9.359 2.47,2.728 6.062,4.883 10.383,6.223 7.24,2.248 15.297,2.017 23.832,1.769 2.086,-0.06 4.17,-0.117 6.246,-0.142 7.913,-0.098 14.283,0.399 20.057,1.553 7.654,1.526 14.362,4.262 19.943,8.131 6.619,4.588 11.681,10.936 14.251,17.869 2.977,8.033 2.649,16.802 -0.904,24.059 -2.253,4.601 -5.779,8.588 -10.194,11.53 -0.282,0.187 -0.576,0.36 -0.865,0.54 3.865,2.15 8.488,3.725 14.065,4.766 4.688,0.87 9.487,1.275 14.247,1.191 z"
         style="fill:#1a1a1a;stroke:#ffffff;stroke-width:0.25;stroke-linecap:butt;stroke-linejoin:miter;stroke-miterlimit:10;stroke-dasharray:none;stroke-opacity:1"
         id="path4382"
         inkscape:connector-curvature="0" />
    </g>
  </g>
</svg>
