<?xml version="1.0" encoding="UTF-8" standalone="no"?>
<!-- Created with Inkscape (http://www.inkscape.org/) -->

<svg
   xmlns:dc="http://purl.org/dc/elements/1.1/"
   xmlns:cc="http://creativecommons.org/ns#"
   xmlns:rdf="http://www.w3.org/1999/02/22-rdf-syntax-ns#"
   xmlns:svg="http://www.w3.org/2000/svg"
   xmlns="http://www.w3.org/2000/svg"
   xmlns:sodipodi="http://sodipodi.sourceforge.net/DTD/sodipodi-0.dtd"
   xmlns:inkscape="http://www.inkscape.org/namespaces/inkscape"
   width="1000"
   height="1000"
   id="svg6337"
   version="1.1"
   inkscape:version="0.48+devel+osxmenu r12707"
   viewBox="0 0 1000 1000"
   sodipodi:docname="ra.svg">
  <defs
     id="defs5498" />
  <sodipodi:namedview
     inkscape:window-height="1002"
     inkscape:window-width="1680"
     inkscape:pageshadow="2"
     inkscape:pageopacity="0.0"
     borderopacity="1.0"
     bordercolor="#666666"
     pagecolor="#ffffff"
     id="base"
     showgrid="false"
     showguides="true"
     inkscape:guide-bbox="true"
     inkscape:zoom="0.32102648"
     inkscape:cx="265.12236"
     inkscape:cy="652.13336"
     inkscape:window-x="0"
     inkscape:window-y="22"
     inkscape:current-layer="layer1"
     inkscape:window-maximized="0">
    <sodipodi:guide
       orientation="horizontal"
       position="-3.1150078,218.05055"
       id="guide5596" />
    <sodipodi:guide
       orientation="0,1"
       position="311.50078,922.04232"
       id="guide6325" />
  </sodipodi:namedview>
  <metadata
     id="metadata5594">
    <rdf:RDF>
      <cc:Work
         rdf:about="">
        <dc:format>image/svg+xml</dc:format>
        <dc:type
           rdf:resource="http://purl.org/dc/dcmitype/StillImage" />
        <dc:title></dc:title>
      </cc:Work>
    </rdf:RDF>
  </metadata>
  <g
     inkscape:label="Layer 1"
     inkscape:groupmode="layer"
     id="layer1">
    <g
       id="g4626"
       transform="matrix(5.214412,0,0,-5.214412,687.01048,752.27612)" />
    <g
       id="g4006"
       transform="matrix(5.0283849,0,0,-5.0283849,398.84779,725.9307)">
      <path
         d="m 0,0 c -5.722,0 -7.79,4.099 -8.488,6.325 0,0.099 0.008,0.195 0.008,0.294 l -0.099,0 C -8.648,6.875 -8.707,7.104 -8.743,7.28 l -13.29,-0.207 c 0,-0.149 0.006,-0.303 0.012,-0.454 l -0.088,0 c 0,-2.705 -4.211,-6.244 -7.771,-6.529 -6.843,-0.547 -13.609,1.474 -18.1,5.415 -2.331,2.044 -4.089,4.576 -5.086,7.318 -0.996,2.738 -1.207,5.723 -0.603,8.408 0.721,3.201 2.677,6.343 5.511,8.85 2.729,2.417 6.241,4.291 10.442,5.568 7.163,2.181 14.964,2.287 23.224,2.4 1.473,0.019 2.944,0.039 4.319,0.07 l 17.442,0.15 c 1.001,0 1.97,0.001 2.923,0.002 C 10.156,28.068 10.122,16.315 10.122,11.51 10.122,1.494 3.78,0 0,0 m 82.489,20.533 c -0.625,6.145 -3.17,12.189 -7.165,17.016 -4.089,4.939 -9.805,8.827 -16.536,11.246 -5.515,1.981 -11.598,2.997 -18.598,3.108 -5.817,0.092 -10.895,0.086 -16.322,0.062 0.008,2.352 0.013,3.824 0.013,3.897 -0.028,8.748 4.053,18.275 7.997,27.486 0.543,1.26 1.073,2.506 1.592,3.737 l 3.785,8.88 -10.453,0 c -9.145,0 -23.47,0.008 -30.687,-0.021 l -0.402,0.01 c -6.448,0.011 -11.178,0.513 -17.031,-1.171 -3.58,-1.029 -6.724,-2.624 -9.339,-4.734 -3.148,-2.539 -5.457,-5.778 -6.685,-9.374 -2.024,-5.946 -0.894,-12.746 2.946,-17.749 3.779,-4.923 9.995,-7.812 16.226,-7.522 5.08,0.234 9.97,2.508 13.42,6.245 3.448,3.738 5.326,8.794 5.154,13.876 l -13.622,-0.466 c 0.05,-1.502 -0.527,-3.06 -1.549,-4.163 -1.018,-1.106 -2.526,-1.808 -4.026,-1.876 -1.77,-0.084 -3.717,0.804 -4.792,2.205 -1.067,1.391 -1.411,3.421 -0.856,5.051 0.385,1.134 1.216,2.257 2.344,3.164 1.194,0.966 2.723,1.72 4.545,2.246 3.851,1.108 8.841,1.031 8.841,1.031 l 5.945,0.017 c 5.906,0 12.818,-0.005 19.588,-0.005 -3.461,-8.434 -6.6,-17.586 -6.568,-26.861 0,-0.065 -0.006,-1.565 -0.016,-3.967 C 9.255,51.899 8.25,51.897 7.21,51.897 l -17.589,-0.151 c -1.428,-0.032 -2.863,-0.051 -4.299,-0.07 -8.844,-0.12 -17.994,-0.245 -27.005,-2.987 -6.085,-1.852 -11.305,-4.678 -15.512,-8.404 -4.956,-4.388 -8.426,-10.091 -9.77,-16.056 -1.189,-5.273 -0.813,-10.827 1.089,-16.059 1.776,-4.893 4.856,-9.357 8.909,-12.911 6.531,-5.734 15.427,-8.891 24.804,-8.891 1.119,0 2.245,0.045 3.372,0.137 4.651,0.372 9.558,2.55 13.384,5.929 3.623,-3.526 8.743,-6.064 15.407,-6.064 11.822,0 23.75,7.774 23.75,25.14 0,4.806 0.036,16.603 0.07,26.825 5.393,0.025 10.427,0.03 16.156,-0.06 5.476,-0.087 10.124,-0.841 14.203,-2.306 4.433,-1.594 8.114,-4.052 10.644,-7.11 2.293,-2.771 3.751,-6.218 4.106,-9.708 C 69.285,15.658 68.544,12.056 66.844,9.008 65.124,5.922 62.415,3.382 59.213,1.854 55.978,0.309 52.269,-0.201 48.763,0.426 44.718,1.146 40.989,3.395 38.53,6.596 L 27.721,-1.706 c 4.504,-5.861 11.298,-9.977 18.648,-11.287 6.29,-1.119 12.939,-0.215 18.719,2.55 5.723,2.732 10.575,7.28 13.661,12.812 3.049,5.465 4.377,11.918 3.74,18.164"
         style="fill:#231f20;fill-opacity:1;fill-rule:nonzero;stroke:none"
         id="path4008"
         inkscape:connector-curvature="0" />
    </g>
  </g>
</svg>
