<?xml version="1.0" encoding="UTF-8" standalone="no"?>
<!-- Created with Inkscape (http://www.inkscape.org/) -->

<svg
   xmlns:dc="http://purl.org/dc/elements/1.1/"
   xmlns:cc="http://creativecommons.org/ns#"
   xmlns:rdf="http://www.w3.org/1999/02/22-rdf-syntax-ns#"
   xmlns:svg="http://www.w3.org/2000/svg"
   xmlns="http://www.w3.org/2000/svg"
   xmlns:sodipodi="http://sodipodi.sourceforge.net/DTD/sodipodi-0.dtd"
   xmlns:inkscape="http://www.inkscape.org/namespaces/inkscape"
   width="1000"
   height="1000"
   id="svg6337"
   version="1.1"
   inkscape:version="0.48+devel+osxmenu r12707"
   viewBox="0 0 1000 1000"
   sodipodi:docname="sha.svg">
  <defs
     id="defs5498" />
  <sodipodi:namedview
     inkscape:window-height="1002"
     inkscape:window-width="1680"
     inkscape:pageshadow="2"
     inkscape:pageopacity="0.0"
     borderopacity="1.0"
     bordercolor="#666666"
     pagecolor="#ffffff"
     id="base"
     showgrid="false"
     showguides="true"
     inkscape:guide-bbox="true"
     inkscape:zoom="0.32102648"
     inkscape:cx="265.12236"
     inkscape:cy="652.13336"
     inkscape:window-x="0"
     inkscape:window-y="22"
     inkscape:current-layer="layer1"
     inkscape:window-maximized="0">
    <sodipodi:guide
       orientation="horizontal"
       position="-3.1150078,218.05055"
       id="guide5596" />
    <sodipodi:guide
       orientation="0,1"
       position="311.50078,922.04232"
       id="guide6325" />
  </sodipodi:namedview>
  <metadata
     id="metadata5594">
    <rdf:RDF>
      <cc:Work
         rdf:about="">
        <dc:format>image/svg+xml</dc:format>
        <dc:type
           rdf:resource="http://purl.org/dc/dcmitype/StillImage" />
        <dc:title></dc:title>
      </cc:Work>
    </rdf:RDF>
  </metadata>
  <g
     inkscape:label="Layer 1"
     inkscape:groupmode="layer"
     id="layer1">
    <g
       id="g4626"
       transform="matrix(5.214412,0,0,-5.214412,687.01048,752.27612)" />
    <g
       id="g4368"
       transform="matrix(4.9347416,0,0,-4.9347416,623.28198,720.68137)">
      <path
         d="m 0,0 -0.002,15.042 c 3.565,1.509 6.894,3.729 9.718,6.559 5.68,5.687 8.799,13.098 11.273,19.598 L 21.081,41.447 21.06,0.01 0,0 Z m -83.676,43.433 c -0.821,-1.347 -2.047,-2.47 -3.452,-3.16 -2.272,-1.115 -5.143,-1.123 -7.495,-0.019 -2.354,1.104 -4.273,3.385 -5.013,5.949 -0.013,0.048 -0.026,0.098 -0.039,0.144 l 0.186,0.033 c -0.406,2.321 0.204,4.825 1.634,6.696 1.428,1.872 3.681,3.119 6.027,3.341 2.345,0.22 4.788,-0.589 6.541,-2.162 1.751,-1.575 2.818,-3.921 2.849,-6.273 0.021,-1.589 -0.417,-3.205 -1.238,-4.549 m 71.412,-18.538 c -2.377,0.207 -4.625,0.996 -6.503,2.282 -1.863,1.277 -3.357,3.07 -4.203,5.051 -0.667,1.553 -0.95,3.215 -0.818,4.806 0.125,1.561 0.672,3.088 1.533,4.298 0.853,1.199 2.039,2.133 3.343,2.631 0.743,0.284 1.546,0.429 2.334,0.429 0.551,0 1.09,-0.072 1.601,-0.212 0.981,-0.276 1.844,-0.876 2.258,-1.574 0.221,-0.374 0.386,-0.861 0.481,-1.411 0.124,-0.735 0.135,-1.659 0.135,-2.7 l 10e-4,-13.613 c -0.052,0.004 -0.108,0.009 -0.162,0.013 M 45.034,76.704 C 40.339,78.419 34.93,77.841 30.571,75.159 30.505,75.118 30.445,75.07 30.383,75.029 26.079,72.524 22.245,69.151 19.241,65.188 15.013,59.61 12.637,53.322 10.34,47.242 L 9.684,45.506 C 7.56,39.929 5.15,34.149 1.155,30.148 0.783,29.775 0.396,29.42 -0.006,29.084 l -0.001,9.413 c 0,1.537 -0.023,3.058 -0.304,4.719 -0.343,2.027 -1.017,3.897 -2,5.555 -1.998,3.375 -5.427,5.948 -9.414,7.061 -3.734,1.043 -7.822,0.839 -11.509,-0.569 -3.506,-1.34 -6.658,-3.796 -8.879,-6.918 -2.136,-3.002 -3.427,-6.572 -3.734,-10.323 -0.291,-3.549 0.317,-7.199 1.756,-10.558 1.767,-4.124 4.7,-7.674 8.487,-10.266 3.592,-2.462 7.843,-3.969 12.292,-4.356 0.403,-0.034 0.809,-0.06 1.212,-0.075 l 0.004,-12.773 -31.232,-0.014 -0.037,0 c -2.427,0 -4.345,0.125 -5.81,0.723 -1.335,0.545 -2.546,1.584 -3.322,2.852 -1.693,2.758 -1.632,6.511 -1.282,9.173 0.336,2.561 1.024,5.172 1.75,7.936 0.402,1.527 0.817,3.108 1.185,4.727 1.803,7.979 2.039,15.467 0.701,22.252 -1.62,8.218 -5.654,15.502 -11.359,20.509 -5.123,4.501 -11.688,7.264 -18.481,7.782 -6.822,0.517 -13.726,-1.233 -19.458,-4.927 -4.647,-2.996 -8.251,-7.059 -10.42,-11.756 -2.429,-5.265 -2.928,-11.087 -1.399,-16.396 1.701,-5.906 5.998,-10.972 11.494,-13.552 5.683,-2.667 12.401,-2.626 17.975,0.113 3.493,1.718 6.413,4.387 8.444,7.72 2.018,3.308 3.059,7.115 3.005,11.007 -0.076,5.733 -2.555,11.216 -6.808,15.065 2.817,-0.79 5.459,-2.207 7.668,-4.147 3.71,-3.258 6.363,-8.143 7.47,-13.757 1.01,-5.119 0.797,-10.921 -0.632,-17.243 -0.321,-1.415 -0.692,-2.826 -1.085,-4.321 -0.791,-3.004 -1.608,-6.114 -2.045,-9.436 -0.868,-6.597 0.156,-12.503 2.963,-17.077 2.126,-3.461 5.342,-6.205 9.062,-7.724 3.48,-1.421 7.048,-1.621 10.383,-1.621 l 0.043,0 31.229,0.014 0.005,-23.466 12.096,0.003 -0.002,23.469 33.143,0.015 0.04,65.04 c 0,2.924 0.054,5.522 0.735,7.693 0.555,1.769 1.57,3.235 2.8,4.073 0.185,0.106 0.368,0.216 0.556,0.318 l -0.008,0.01 c 1.139,0.57 2.515,0.692 3.615,0.29 1.167,-0.428 2.172,-1.515 2.497,-2.702 l 11.672,3.179 c -1.346,4.95 -5.187,9.12 -10.021,10.886"
         style="fill:#231f20;fill-opacity:1;fill-rule:nonzero;stroke:none"
         id="path4370"
         inkscape:connector-curvature="0" />
    </g>
  </g>
</svg>
