<?xml version="1.0" encoding="UTF-8" standalone="no"?>
<!-- Created with Inkscape (http://www.inkscape.org/) -->

<svg
   xmlns:dc="http://purl.org/dc/elements/1.1/"
   xmlns:cc="http://creativecommons.org/ns#"
   xmlns:rdf="http://www.w3.org/1999/02/22-rdf-syntax-ns#"
   xmlns:svg="http://www.w3.org/2000/svg"
   xmlns="http://www.w3.org/2000/svg"
   xmlns:sodipodi="http://sodipodi.sourceforge.net/DTD/sodipodi-0.dtd"
   xmlns:inkscape="http://www.inkscape.org/namespaces/inkscape"
   width="1000"
   height="1000"
   id="svg6337"
   version="1.1"
   inkscape:version="0.48+devel+osxmenu r12707"
   viewBox="0 0 1000 1000"
   sodipodi:docname="tha.svg">
  <defs
     id="defs5498" />
  <sodipodi:namedview
     inkscape:window-height="1002"
     inkscape:window-width="1680"
     inkscape:pageshadow="2"
     inkscape:pageopacity="0.0"
     borderopacity="1.0"
     bordercolor="#666666"
     pagecolor="#ffffff"
     id="base"
     showgrid="false"
     showguides="true"
     inkscape:guide-bbox="true"
     inkscape:zoom="0.32102648"
     inkscape:cx="265.12236"
     inkscape:cy="652.13336"
     inkscape:window-x="0"
     inkscape:window-y="22"
     inkscape:current-layer="layer1"
     inkscape:window-maximized="0">
    <sodipodi:guide
       orientation="horizontal"
       position="-3.1150078,218.05055"
       id="guide5596" />
    <sodipodi:guide
       orientation="0,1"
       position="311.50078,922.04232"
       id="guide6325" />
  </sodipodi:namedview>
  <metadata
     id="metadata5594">
    <rdf:RDF>
      <cc:Work
         rdf:about="">
        <dc:format>image/svg+xml</dc:format>
        <dc:type
           rdf:resource="http://purl.org/dc/dcmitype/StillImage" />
        <dc:title></dc:title>
      </cc:Work>
    </rdf:RDF>
  </metadata>
  <g
     inkscape:label="Layer 1"
     inkscape:groupmode="layer"
     id="layer1">
    <g
       id="g4626"
       transform="matrix(5.214412,0,0,-5.214412,687.01048,752.27612)" />
    <g
       id="g4010"
       transform="matrix(4.9925952,0,0,-4.9925952,434.89201,738.99479)">
      <path
         d="m 0,0 0,-0.044 c -11.411,0 -20.538,0.006 -28.87,0.153 l -0.329,0.006 -0.33,-0.025 c -6.764,-0.542 -13.449,1.457 -17.886,5.349 -2.305,2.022 -4.043,4.523 -5.028,7.233 -0.981,2.705 -1.194,5.656 -0.594,8.31 0.713,3.164 2.646,6.269 5.444,8.747 2.697,2.387 6.171,4.24 10.322,5.503 7.075,2.155 14.783,2.258 22.944,2.369 1.456,0.02 2.912,0.04 4.275,0.071 l 17.237,0.146 c 1.061,0 2.014,0.002 2.887,0.005 C 10.038,27.738 10.004,16.124 10.004,11.374 10.004,1.477 3.736,0 0,0 m 80.295,15.249 c -0.397,8.99 -4.049,17.651 -10.016,23.759 -3.743,3.831 -8.44,6.831 -13.965,8.917 -4.545,1.716 -9.529,2.781 -15.242,3.256 l -12.127,0.112 c -2.258,0.036 -3.959,0.057 -5.356,0.067 0.008,2.323 0.014,3.774 0.014,3.846 -0.029,8.647 4.004,18.06 7.903,27.162 0.535,1.248 1.061,2.479 1.572,3.693 l 3.738,8.777 -10.328,0 c -9.037,0 -23.194,0.008 -30.324,-0.021 l -0.4,0.01 c -6.372,0.011 -11.046,0.507 -16.831,-1.157 -3.538,-1.017 -6.642,-2.593 -9.229,-4.68 -3.11,-2.509 -5.394,-5.711 -6.606,-9.261 -2,-5.875 -0.885,-12.597 2.91,-17.541 3.736,-4.867 9.88,-7.721 16.037,-7.433 5.019,0.229 9.853,2.478 13.262,6.171 3.408,3.693 5.264,8.691 5.091,13.713 l -13.461,-0.462 c 0.051,-1.486 -0.521,-3.024 -1.529,-4.114 -1.007,-1.093 -2.494,-1.786 -3.98,-1.854 -1.748,-0.083 -3.67,0.795 -4.734,2.179 -1.055,1.376 -1.395,3.383 -0.846,4.994 0.381,1.12 1.203,2.229 2.316,3.126 1.18,0.953 2.693,1.7 4.491,2.218 3.807,1.094 8.2,0.99 12.846,0.879 l 0.587,-0.012 0.092,0 c 5.812,0.02 13.263,0.069 20.446,0.164 -3.42,-8.334 -6.523,-17.38 -6.493,-26.545 0,-0.066 -0.006,-1.547 -0.015,-3.92 C 9.22,51.288 8.232,51.288 7.127,51.288 l -17.383,-0.149 c -1.416,-0.032 -2.836,-0.05 -4.255,-0.071 -8.741,-0.12 -17.78,-0.242 -26.682,-2.95 -6.018,-1.831 -11.174,-4.626 -15.33,-8.305 -4.897,-4.336 -8.325,-9.974 -9.655,-15.869 -1.175,-5.212 -0.802,-10.699 1.078,-15.87 1.754,-4.835 4.797,-9.246 8.802,-12.759 7.15,-6.272 17.15,-9.42 27.506,-8.678 8.668,-0.149 18.121,-0.149 30.048,-0.149 l 0,0.075 c 11.26,0.534 22.219,8.266 22.219,24.811 0,4.753 0.034,16.415 0.068,26.517 1.363,-0.01 3.027,-0.03 5.242,-0.065 l 11.416,-0.09 c 4.343,-0.378 8.06,-1.169 11.354,-2.412 3.622,-1.367 6.763,-3.348 9.089,-5.727 3.682,-3.772 5.943,-9.217 6.195,-14.943 0.242,-5.521 -1.35,-11.447 -4.484,-16.684 -2.959,-4.943 -7.388,-9.491 -12.811,-13.156 -4.899,-3.311 -10.825,-6.065 -17.613,-8.188 -8.132,-2.542 -16.533,-3.948 -25.425,-5.439 -8.454,-1.416 -17.194,-2.881 -25.735,-5.413 -16.229,-4.817 -31.372,-13.445 -43.787,-24.958 l 9.16,-9.877 c 10.905,10.112 24.205,17.692 38.46,21.922 7.748,2.298 15.705,3.632 24.126,5.042 8.95,1.499 18.205,3.049 27.219,5.868 8.04,2.512 15.151,5.838 21.136,9.882 7.045,4.76 12.863,10.778 16.826,17.399 4.54,7.583 6.748,15.951 6.384,24.197"
         style="fill:#231f20;fill-opacity:1;fill-rule:nonzero;stroke:none"
         id="path4012"
         inkscape:connector-curvature="0" />
    </g>
  </g>
</svg>
