<?xml version="1.0" encoding="UTF-8" standalone="no"?>
<!-- Created with Inkscape (http://www.inkscape.org/) -->

<svg
   xmlns:dc="http://purl.org/dc/elements/1.1/"
   xmlns:cc="http://creativecommons.org/ns#"
   xmlns:rdf="http://www.w3.org/1999/02/22-rdf-syntax-ns#"
   xmlns:svg="http://www.w3.org/2000/svg"
   xmlns="http://www.w3.org/2000/svg"
   xmlns:sodipodi="http://sodipodi.sourceforge.net/DTD/sodipodi-0.dtd"
   xmlns:inkscape="http://www.inkscape.org/namespaces/inkscape"
   width="1000"
   height="1000"
   id="svg6337"
   version="1.1"
   inkscape:version="0.48+devel+osxmenu r12707"
   viewBox="0 0 1000 1000"
   sodipodi:docname="u.svg">
  <defs
     id="defs5498" />
  <sodipodi:namedview
     inkscape:window-height="1002"
     inkscape:window-width="1680"
     inkscape:pageshadow="2"
     inkscape:pageopacity="0.0"
     borderopacity="1.0"
     bordercolor="#666666"
     pagecolor="#ffffff"
     id="base"
     showgrid="false"
     showguides="true"
     inkscape:guide-bbox="true"
     inkscape:zoom="0.64205296"
     inkscape:cx="675.07076"
     inkscape:cy="402.93273"
     inkscape:window-x="0"
     inkscape:window-y="22"
     inkscape:current-layer="layer1"
     inkscape:window-maximized="0">
    <sodipodi:guide
       orientation="horizontal"
       position="-3.1150078,218.05055"
       id="guide5596" />
    <sodipodi:guide
       orientation="0,1"
       position="311.50078,922.04232"
       id="guide6325" />
  </sodipodi:namedview>
  <metadata
     id="metadata5594">
    <rdf:RDF>
      <cc:Work
         rdf:about="">
        <dc:format>image/svg+xml</dc:format>
        <dc:type
           rdf:resource="http://purl.org/dc/dcmitype/StillImage" />
        <dc:title></dc:title>
      </cc:Work>
    </rdf:RDF>
  </metadata>
  <g
     inkscape:label="Layer 1"
     inkscape:groupmode="layer"
     id="layer1">
    <g
       id="g4626"
       transform="matrix(5.214412,0,0,-5.214412,687.01048,752.27612)" />
    <g
       id="g4666"
       transform="matrix(10.392875,0,0,-10.392875,643.65571,973.33898)">
      <path
         d="m 0,0 -26.548,0.012 c -0.801,0 -1.588,0.011 -2.419,0.136 -1.012,0.155 -1.948,0.457 -2.783,0.905 -1.816,0.968 -3.197,2.672 -3.793,4.671 -0.752,2.527 -0.195,5.377 1.452,7.436 l 4.217,-3.373 c -0.542,-0.678 -0.738,-1.691 -0.492,-2.524 0.184,-0.617 0.616,-1.158 1.159,-1.447 0.293,-0.156 0.646,-0.266 1.05,-0.328 0.462,-0.07 1.003,-0.076 1.611,-0.077 L -4.177,5.402 c 0.501,2.479 0.661,5.008 0.479,7.543 -0.183,2.521 -0.705,5.005 -1.552,7.386 l 5.086,1.814 C 0.85,19.303 1.473,16.34 1.688,13.334 1.965,9.502 1.582,5.68 0.553,1.977 L 0,0 Z"
         style="fill:#110f0d;fill-opacity:1;fill-rule:nonzero;stroke:none"
         id="path4668"
         inkscape:connector-curvature="0" />
    </g>
  </g>
</svg>
