<?xml version="1.0" encoding="UTF-8" standalone="no"?>
<!-- Created with Inkscape (http://www.inkscape.org/) -->

<svg
   xmlns:dc="http://purl.org/dc/elements/1.1/"
   xmlns:cc="http://creativecommons.org/ns#"
   xmlns:rdf="http://www.w3.org/1999/02/22-rdf-syntax-ns#"
   xmlns:svg="http://www.w3.org/2000/svg"
   xmlns="http://www.w3.org/2000/svg"
   xmlns:sodipodi="http://sodipodi.sourceforge.net/DTD/sodipodi-0.dtd"
   xmlns:inkscape="http://www.inkscape.org/namespaces/inkscape"
   width="1000"
   height="1000"
   id="svg6337"
   version="1.1"
   inkscape:version="0.48+devel+osxmenu r12707"
   viewBox="0 0 1000 1000"
   sodipodi:docname="v_a.svg">
  <defs
     id="defs5498" />
  <sodipodi:namedview
     inkscape:window-height="1002"
     inkscape:window-width="1680"
     inkscape:pageshadow="2"
     inkscape:pageopacity="0.0"
     borderopacity="1.0"
     bordercolor="#666666"
     pagecolor="#ffffff"
     id="base"
     showgrid="false"
     showguides="true"
     inkscape:guide-bbox="true"
     inkscape:zoom="0.454"
     inkscape:cx="791.85022"
     inkscape:cy="652.13336"
     inkscape:window-x="0"
     inkscape:window-y="22"
     inkscape:current-layer="layer1"
     inkscape:window-maximized="0">
    <sodipodi:guide
       orientation="horizontal"
       position="200"
       id="guide5596" />
  </sodipodi:namedview>
  <metadata
     id="metadata5594">
    <rdf:RDF>
      <cc:Work
         rdf:about="">
        <dc:format>image/svg+xml</dc:format>
        <dc:type
           rdf:resource="http://purl.org/dc/dcmitype/StillImage" />
        <dc:title></dc:title>
      </cc:Work>
    </rdf:RDF>
  </metadata>
  <g
     inkscape:label="Layer 1"
     inkscape:groupmode="layer"
     id="layer1">
    <path
       inkscape:connector-curvature="0"
       id="path4472"
       style="fill:#231f20;fill-opacity:1;fill-rule:nonzero;stroke:none"
       d="m 445.80929,643.6074 c -0.04,9.83464 -3.6799,58.94332 -70.59279,58.94332 -93.04538,0 -285.16175,-35.04893 -285.16175,-143.3807 0,-94.83154 226.85685,-106.10085 355.89804,-107.44944 z M 254.08032,268.67131 c -24.76237,0 -44.82619,-20.27902 -44.82619,-45.29246 0,-25.01343 20.06382,-45.29963 44.82619,-45.29963 24.75519,0 44.81185,20.2862 44.81185,45.29963 -2.13378,49.63468 -44.81185,45.29246 -44.81185,45.29246 z m 540.19517,-96.36663 c -13.6573,-16.13879 -40.3715,-33.99445 -82.7516,-33.99445 -47.4083,0 -74.6096,19.15281 -89.0786,35.22826 -26.9069,29.89848 -27.2299,67.30027 -26.5987,78.97129 l 0,109.35038 -60.3995,0.46598 c 0,-44.34558 0.057,-83.87068 0.057,-109.27147 0,-93.55469 -95.0755,-175.624866 -203.45744,-175.624866 -102.57874,0 -206.43434,48.893486 -206.43434,142.340576 0,63.64903 42.05728,132.14725 134.3925,132.14725 75.54243,0 128.18757,-69.1223 128.18757,-131.16451 0,-14.79142 -3.70862,-30.37909 -10.3583,-45.50049 38.72885,14.41842 68.24001,45.4718 68.24001,77.80204 0,25.39362 -0.017,64.91154 -0.046,109.22843 -70.64309,0.66712 -168.46591,4.11032 -249.59638,21.67783 C 34.60836,418.98117 0.64259844,498.56937 0.64259844,559.16974 c 0,170.81154 224.01620156,232.81071 374.59176156,232.81071 116.88243,0 159.72843,-88.48313 160.01543,-148.12945 0,0 0.086,-93.37535 0.1606,-192.09484 l 60.4569,0.30128 0,548.73886 89.4303,0 0,-749.77886 c 0,-14.48297 13.2346,-25.34341 26.1179,-25.34341 14.4976,0 25.9606,10.68111 25.9606,25.30037 l 0,25.83837 82.44869,0.0717 c 0.56706,-75.97265 -13.55306,-90.40387 -25.54929,-104.57979 z"
       sodipodi:nodetypes="cssccssscsscccssssscsccsscccccsssccccs" />
  </g>
</svg>
