<?xml version="1.0" encoding="UTF-8" standalone="no"?>
<!-- Created with Inkscape (http://www.inkscape.org/) -->

<svg
   xmlns:dc="http://purl.org/dc/elements/1.1/"
   xmlns:cc="http://creativecommons.org/ns#"
   xmlns:rdf="http://www.w3.org/1999/02/22-rdf-syntax-ns#"
   xmlns:svg="http://www.w3.org/2000/svg"
   xmlns="http://www.w3.org/2000/svg"
   xmlns:sodipodi="http://sodipodi.sourceforge.net/DTD/sodipodi-0.dtd"
   xmlns:inkscape="http://www.inkscape.org/namespaces/inkscape"
   width="1000"
   height="1000"
   id="svg6337"
   version="1.1"
   inkscape:version="0.48+devel+osxmenu r12707"
   viewBox="0 0 1000 1000"
   sodipodi:docname="v_i.svg">
  <defs
     id="defs5498" />
  <sodipodi:namedview
     inkscape:window-height="1002"
     inkscape:window-width="1680"
     inkscape:pageshadow="2"
     inkscape:pageopacity="0.0"
     borderopacity="1.0"
     bordercolor="#666666"
     pagecolor="#ffffff"
     id="base"
     showgrid="false"
     showguides="true"
     inkscape:guide-bbox="true"
     inkscape:zoom="0.908"
     inkscape:cx="639.5953"
     inkscape:cy="519.97477"
     inkscape:window-x="0"
     inkscape:window-y="22"
     inkscape:current-layer="layer1"
     inkscape:window-maximized="0">
    <sodipodi:guide
       orientation="horizontal"
       position="-3.1150078,218.05055"
       id="guide5596" />
    <sodipodi:guide
       orientation="0,1"
       position="311.50078,922.04232"
       id="guide6325" />
  </sodipodi:namedview>
  <metadata
     id="metadata5594">
    <rdf:RDF>
      <cc:Work
         rdf:about="">
        <dc:format>image/svg+xml</dc:format>
        <dc:type
           rdf:resource="http://purl.org/dc/dcmitype/StillImage" />
        <dc:title />
      </cc:Work>
    </rdf:RDF>
  </metadata>
  <g
     inkscape:label="Layer 1"
     inkscape:groupmode="layer"
     id="layer1">
    <g
       id="g4594"
       transform="matrix(5.6669351,0,0,-5.6669351,377.77529,598.67626)">
      <path
         d="m 0,0 c 2.26,2.537 4.258,5.322 5.947,8.291 3.951,6.942 6.185,14.846 6.478,22.896 2.075,-0.634 3.94,-1.457 5.551,-2.451 2.44,-1.504 4.361,-3.439 5.555,-5.597 1.463,-2.645 1.963,-5.969 1.373,-9.12 C 24.306,10.846 22.628,7.77 20.177,5.357 17.73,2.949 14.55,1.191 10.982,0.271 7.572,-0.605 3.746,-0.699 0,0 m -26.506,32.248 c 3.236,0.223 6.558,0.267 10.066,0.315 l 0.127,10e-4 c 1.316,0.018 2.632,0.036 3.945,0.065 1.218,0.026 2.436,0.061 3.669,0.098 2.12,0.062 4.307,0.127 6.414,0.136 -0.025,-5.998 -1.643,-12.115 -4.58,-17.28 -1.881,-3.306 -4.356,-6.329 -7.173,-8.767 -2.438,2.043 -4.554,4.399 -6.295,7.008 -3.534,5.295 -5.664,11.655 -6.173,18.424 M -28.19,-0.006 c -0.856,-0.15 -1.717,-0.262 -2.571,-0.33 -0.645,-0.052 -1.302,-0.078 -1.949,-0.078 -5.392,0 -10.481,1.754 -13.965,4.812 -2.017,1.77 -3.537,3.956 -4.395,6.317 -0.849,2.336 -1.033,4.879 -0.519,7.16 0.617,2.736 2.305,5.437 4.751,7.603 1.621,1.434 3.577,2.662 5.821,3.653 0.956,-8.545 3.861,-16.654 8.42,-23.49 1.325,-1.983 2.804,-3.879 4.407,-5.647 M 59.628,74.992 C 48.421,86.64 32.162,93.593 16.136,93.593 c -2.351,0 -4.703,-0.15 -6.988,-0.443 -13.219,-1.694 -25.544,-8.004 -34.706,-17.768 -7.815,-8.329 -13.144,-19.152 -15.027,-30.507 -0.435,-0.119 -0.868,-0.244 -1.302,-0.376 -5.771,-1.757 -10.725,-4.442 -14.723,-7.983 -4.745,-4.202 -8.069,-9.67 -9.36,-15.401 -1.143,-5.07 -0.782,-10.407 1.044,-15.433 1.702,-4.688 4.652,-8.963 8.527,-12.364 6.229,-5.467 14.615,-8.478 23.611,-8.478 1.064,0 2.143,0.043 3.208,0.129 5.378,0.431 10.612,1.883 15.561,4.315 3.55,-1.743 7.27,-2.997 11.061,-3.729 5.899,-1.138 12.086,-0.983 17.616,0.44 6.078,1.566 11.562,4.626 15.857,8.853 4.578,4.506 7.731,10.347 8.875,16.451 1.233,6.56 0.182,13.3 -2.959,18.976 -2.416,4.371 -6.123,8.178 -10.719,11.012 -3.841,2.367 -8.328,4.083 -13.334,5.1 -0.619,0.126 -1.253,0.242 -1.896,0.349 C 8.697,52.862 5.718,58.694 1.855,63.62 l -4.548,5.8 -11.602,-9.098 4.549,-5.801 c 1.666,-2.123 3.089,-4.462 4.237,-6.961 -1.218,-0.027 -2.429,-0.062 -3.634,-0.097 -1.182,-0.035 -2.365,-0.069 -3.545,-0.096 -1.273,-0.027 -2.548,-0.045 -3.828,-0.062 l -0.139,-0.002 c -2.715,-0.036 -5.516,-0.074 -8.335,-0.205 1.924,6.791 5.524,13.23 10.183,18.196 6.725,7.167 16.139,11.991 25.83,13.233 1.695,0.218 3.439,0.328 5.182,0.328 12.05,0 24.314,-5.265 32.8,-14.085 C 58.64,54.76 63.75,40.179 62.671,25.767 61.681,12.508 55.566,-0.328 45.894,-9.452 38.892,-16.061 30.117,-20.697 20.486,-22.87 14.824,-24.467 12.207,-24.725 8.132,-24.725 l -2.457,0.014 3.27,-14.201 1.058,0.016 c 3.526,0.059 7.092,0.404 10.608,1.027 2.203,-0.803 4.119,-2.419 5.273,-4.449 1.25,-2.198 1.619,-4.97 0.989,-7.416 -0.633,-2.45 -2.295,-4.699 -4.448,-6.018 -2.101,-1.287 -4.974,-1.768 -7.381,-1.231 -2.466,0.548 -4.769,2.135 -6.16,4.244 l -4.057,6.153 -12.308,-8.113 4.057,-6.155 c 3.499,-5.306 9.064,-9.14 15.265,-10.519 1.729,-0.387 3.516,-0.582 5.313,-0.582 4.611,0 9.097,1.257 12.974,3.634 5.418,3.319 9.434,8.753 11.02,14.909 1.584,6.154 0.693,12.852 -2.445,18.377 -0.453,0.796 -0.953,1.569 -1.493,2.307 7,3.162 13.325,7.382 18.803,12.552 C 68.324,-8.56 77.27505,8.7567083 77.375,24.668 77.211558,49.8028 70.5602,63.629614 59.628,74.992 Z"
         style="fill:#373535;fill-opacity:1;fill-rule:nonzero;stroke:none"
         id="path4596"
         inkscape:connector-curvature="0"
         sodipodi:nodetypes="cccccccccccccccccccccscccccccsscccccccssccccccccccccccccccccccsccccccccccccccccccsccccccs" />
    </g>
  </g>
</svg>
