<?xml version="1.0" encoding="UTF-8" standalone="no"?>
<!-- Created with Inkscape (http://www.inkscape.org/) -->

<svg
   xmlns:dc="http://purl.org/dc/elements/1.1/"
   xmlns:cc="http://creativecommons.org/ns#"
   xmlns:rdf="http://www.w3.org/1999/02/22-rdf-syntax-ns#"
   xmlns:svg="http://www.w3.org/2000/svg"
   xmlns="http://www.w3.org/2000/svg"
   xmlns:sodipodi="http://sodipodi.sourceforge.net/DTD/sodipodi-0.dtd"
   xmlns:inkscape="http://www.inkscape.org/namespaces/inkscape"
   width="1000"
   height="1000"
   id="svg6337"
   version="1.1"
   inkscape:version="0.48+devel+osxmenu r12707"
   viewBox="0 0 1000 1000"
   sodipodi:docname="e.svg">
  <defs
     id="defs5498">
    <inkscape:path-effect
       effect="spiro"
       id="path-effect846"
       is_visible="true" />
  </defs>
  <sodipodi:namedview
     inkscape:window-height="1002"
     inkscape:window-width="1680"
     inkscape:pageshadow="2"
     inkscape:pageopacity="0.0"
     borderopacity="1.0"
     bordercolor="#666666"
     pagecolor="#ffffff"
     id="base"
     showgrid="false"
     showguides="true"
     inkscape:guide-bbox="true"
     inkscape:zoom="7.264"
     inkscape:cx="241.20215"
     inkscape:cy="210.25469"
     inkscape:window-x="0"
     inkscape:window-y="22"
     inkscape:current-layer="layer1"
     inkscape:window-maximized="0">
    <sodipodi:guide
       orientation="horizontal"
       position="-3.1150078,218.05055"
       id="guide5596" />
    <sodipodi:guide
       orientation="0,1"
       position="311.50078,922.04232"
       id="guide6325" />
  </sodipodi:namedview>
  <metadata
     id="metadata5594">
    <rdf:RDF>
      <cc:Work
         rdf:about="">
        <dc:format>image/svg+xml</dc:format>
        <dc:type
           rdf:resource="http://purl.org/dc/dcmitype/StillImage" />
        <dc:title></dc:title>
      </cc:Work>
    </rdf:RDF>
  </metadata>
  <g
     inkscape:label="Layer 1"
     inkscape:groupmode="layer"
     id="layer1">
    <g
       id="g4626"
       transform="matrix(5.214412,0,0,-5.214412,687.01048,752.27612)" />
    <g
       transform="matrix(16.738872,0,0,-16.738872,234.2983,591.2105)"
       id="g5562">
      <path
         inkscape:connector-curvature="0"
         id="path5564"
         style="fill:#292929;fill-opacity:1;fill-rule:nonzero;stroke:none"
         d="m 0,0 c -0.471,0 -0.943,-0.09 -1.377,-0.265 -0.615,-0.25 -1.172,-0.682 -1.566,-1.218 -0.395,-0.536 -0.641,-1.197 -0.696,-1.86 -0.054,-0.663 0.082,-1.354 0.383,-1.949 0.302,-0.592 0.78,-1.109 1.348,-1.457 0.564,-0.344 1.238,-0.533 1.9,-0.533 l 0.012,0 c 0.296,0 0.594,0.039 0.885,0.113 0.465,0.133 0.896,0.338 1.261,0.607 0.866,0.635 1.433,1.696 1.479,2.77 0.045,1.074 -0.43,2.182 -1.238,2.89 -0.5,0.439 -1.137,0.741 -1.793,0.852 C 0.401,-0.017 0.201,0 0,0 m -0.368,-11.71 c -1.353,0 -2.743,0.296 -4.054,0.865 -2.433,1.057 -4.551,2.992 -6.287,5.749 -1.789,2.837 -2.888,6.069 -3.18,9.345 -0.299,3.369 0.252,6.756 1.594,9.795 1.379,3.121 3.551,5.803 6.283,7.751 2.764,1.971 6.123,3.155 9.461,3.333 2.326,0.124 4.703,-0.209 7.065,-0.992 4.431,-1.469 8.314,-4.406 10.935,-8.269 C 24.07,12.005 25.363,7.31 25.09,2.649 l -4.361,0.256 c 0.218,3.706 -0.811,7.438 -2.895,10.51 -2.083,3.072 -5.172,5.407 -8.695,6.575 C 7.299,20.6 5.461,20.861 3.682,20.766 1.163,20.632 -1.379,19.733 -3.475,18.239 -5.568,16.745 -7.236,14.685 -8.299,12.28 -9.344,9.914 -9.771,7.271 -9.537,4.636 c 0.188,-2.12 0.808,-4.221 1.806,-6.15 0.258,0.939 0.686,1.826 1.268,2.618 0.88,1.196 2.072,2.123 3.447,2.68 1.377,0.558 2.877,0.721 4.342,0.473 C 2.789,4.011 4.152,3.362 5.27,2.384 7.076,0.8 8.095,-1.577 7.993,-3.978 7.891,-6.38 6.672,-8.663 4.734,-10.084 4.564,-10.208 4.391,-10.326 4.212,-10.437 l 0.005,-0.008 c -0.672,-0.418 -1.399,-0.731 -2.155,-0.933 -0.616,-0.174 -1.257,-0.28 -1.916,-0.316 -0.17133333,-0.0053 -0.34266667,-0.01067 -0.514,-0.016 z"
         sodipodi:nodetypes="ccccccssccccccccccccccccccccccccccccccccccc" />
    </g>
  </g>
</svg>
