<?xml version="1.0" encoding="UTF-8" standalone="no"?>
<!-- Created with Inkscape (http://www.inkscape.org/) -->

<svg
   xmlns:dc="http://purl.org/dc/elements/1.1/"
   xmlns:cc="http://creativecommons.org/ns#"
   xmlns:rdf="http://www.w3.org/1999/02/22-rdf-syntax-ns#"
   xmlns:svg="http://www.w3.org/2000/svg"
   xmlns="http://www.w3.org/2000/svg"
   xmlns:sodipodi="http://sodipodi.sourceforge.net/DTD/sodipodi-0.dtd"
   xmlns:inkscape="http://www.inkscape.org/namespaces/inkscape"
   width="1000"
   height="1000"
   id="svg6337"
   version="1.1"
   inkscape:version="0.48+devel+osxmenu r12707"
   viewBox="0 0 1000 1000"
   sodipodi:docname="pa.svg">
  <defs
     id="defs5498" />
  <sodipodi:namedview
     inkscape:window-height="1002"
     inkscape:window-width="1680"
     inkscape:pageshadow="2"
     inkscape:pageopacity="0.0"
     borderopacity="1.0"
     bordercolor="#666666"
     pagecolor="#ffffff"
     id="base"
     showgrid="false"
     showguides="true"
     inkscape:guide-bbox="true"
     inkscape:zoom="0.32102648"
     inkscape:cx="782.21366"
     inkscape:cy="652.13336"
     inkscape:window-x="0"
     inkscape:window-y="22"
     inkscape:current-layer="layer1"
     inkscape:window-maximized="0">
    <sodipodi:guide
       orientation="horizontal"
       position="-3.1150078,218.05055"
       id="guide5596" />
    <sodipodi:guide
       orientation="0,1"
       position="311.50078,922.04232"
       id="guide6325" />
  </sodipodi:namedview>
  <metadata
     id="metadata5594">
    <rdf:RDF>
      <cc:Work
         rdf:about="">
        <dc:format>image/svg+xml</dc:format>
        <dc:type
           rdf:resource="http://purl.org/dc/dcmitype/StillImage" />
        <dc:title></dc:title>
      </cc:Work>
    </rdf:RDF>
  </metadata>
  <g
     inkscape:label="Layer 1"
     inkscape:groupmode="layer"
     id="layer1">
    <g
       id="g4626"
       transform="matrix(5.214412,0,0,-5.214412,687.01048,752.27612)" />
    <g
       id="g4934"
       transform="matrix(7.2040839,0,0,-7.2040839,767.90675,795.35275)">
      <path
         d="m -16.424592,2.3324069 -55.277355,0 0.104846,61.6234771 c -0.0025,3.090023 -0.314539,5.302694 -1.009878,7.160566 -0.686112,1.826838 -1.950136,3.464114 -3.562249,4.609871 -2.190024,1.560948 -5.039321,2.281451 -7.79803,1.976978 -2.252932,-0.246598 -4.370822,-1.156662 -5.965321,-2.559083 -1.560948,-1.37558 -2.632055,-3.271197 -2.939883,-5.202042 -0.245759,-1.539978 0,-3.147059 0.672692,-4.410244 0.63998,-1.199439 1.721991,-2.164022 2.892912,-2.583407 0.947809,-0.338023 2.041563,-0.358154 2.999436,-0.05368 0.961229,0.305312 1.844452,0.950325 2.422363,1.772318 l 10.356274,-7.294769 c -2.173249,-3.086668 -5.352181,-5.413411 -8.950498,-6.552459 -3.589929,-1.139886 -7.529624,-1.070269 -11.085163,0.197949 -4.125063,1.473716 -7.700734,4.592257 -9.813594,8.555438 -1.97362,3.701485 -2.6849,8.092438 -2.00549,12.361769 0.77418,4.860663 3.28797,9.376592 7.079203,12.715729 3.533732,3.110992 8.13186,5.115649 12.953101,5.645751 5.816859,0.636625 11.837539,-0.910903 16.527093,-4.248362 3.645288,-2.593472 6.515553,-6.316765 8.078179,-10.483767 1.606241,-4.286945 1.814256,-8.459818 1.815095,-11.616104 l -0.08052,-48.948008 42.586789,0 c 4.464764,0 6.9022249,3.946405 6.9022249,5.973708 0,20.767906 -0.04026,51.156486 -0.04026,51.156486 l 0.02181,0.541006 c 0.4227394,4.996543 1.6943123,9.019277 3.8893693,12.298022 3.4691462,5.18275 9.4982136,8.469045 15.7327788,8.576408 6.243788,0.13504 12.370991,-2.96337 16.019634,-8.020305 L 15.827731,78.112618 c -1.219569,1.692634 -3.415465,2.781356 -5.525806,2.767935 -2.0860176,-0.03607 -4.2668154,-1.22544 -5.4276709,-2.958336 -0.9394207,-1.403259 -1.5190096,-3.387785 -1.7698014,-6.060102 0.00503,-3.124412 0.040261,-31.289417 0.040261,-50.88808 0,-8.817134 -8.037079,-18.6416281 -19.5693057,-18.6416281 z"
         style="fill:#000000;stroke:#2a3236;stroke-width:0.83876842;stroke-linecap:butt;stroke-linejoin:miter;stroke-miterlimit:10;stroke-dasharray:none;stroke-opacity:1"
         id="path4936"
         inkscape:connector-curvature="0" />
    </g>
  </g>
</svg>
