<?xml version="1.0" encoding="UTF-8" standalone="no"?>
<!-- Created with Inkscape (http://www.inkscape.org/) -->

<svg
   xmlns:dc="http://purl.org/dc/elements/1.1/"
   xmlns:cc="http://creativecommons.org/ns#"
   xmlns:rdf="http://www.w3.org/1999/02/22-rdf-syntax-ns#"
   xmlns:svg="http://www.w3.org/2000/svg"
   xmlns="http://www.w3.org/2000/svg"
   xmlns:sodipodi="http://sodipodi.sourceforge.net/DTD/sodipodi-0.dtd"
   xmlns:inkscape="http://www.inkscape.org/namespaces/inkscape"
   width="1000"
   height="1000"
   id="svg6337"
   version="1.1"
   inkscape:version="0.48+devel+osxmenu r12707"
   viewBox="0 0 1000 1000"
   sodipodi:docname="sa.svg">
  <defs
     id="defs5498" />
  <sodipodi:namedview
     inkscape:window-height="1002"
     inkscape:window-width="1680"
     inkscape:pageshadow="2"
     inkscape:pageopacity="0.0"
     borderopacity="1.0"
     bordercolor="#666666"
     pagecolor="#ffffff"
     id="base"
     showgrid="false"
     showguides="true"
     inkscape:guide-bbox="true"
     inkscape:zoom="0.32102648"
     inkscape:cx="-251.96894"
     inkscape:cy="652.13336"
     inkscape:window-x="0"
     inkscape:window-y="22"
     inkscape:current-layer="layer1"
     inkscape:window-maximized="0">
    <sodipodi:guide
       orientation="horizontal"
       position="-3.1150078,218.05055"
       id="guide5596" />
    <sodipodi:guide
       orientation="0,1"
       position="311.50078,922.04232"
       id="guide6325" />
  </sodipodi:namedview>
  <metadata
     id="metadata5594">
    <rdf:RDF>
      <cc:Work
         rdf:about="">
        <dc:format>image/svg+xml</dc:format>
        <dc:type
           rdf:resource="http://purl.org/dc/dcmitype/StillImage" />
        <dc:title></dc:title>
      </cc:Work>
    </rdf:RDF>
  </metadata>
  <g
     inkscape:label="Layer 1"
     inkscape:groupmode="layer"
     id="layer1">
    <g
       id="g4626"
       transform="matrix(5.214412,0,0,-5.214412,687.01048,752.27612)" />
    <g
       id="g4372"
       transform="matrix(4.6580046,0,0,-4.6580046,283.99589,670.82531)">
      <path
         d="m 0,0 c 1.323,2.733 4.105,4.88 7.085,5.468 2.983,0.588 6.369,-0.342 8.632,-2.367 2.262,-2.026 3.56,-5.29 3.306,-8.318 -0.272,-3.226 -2.269,-6.315 -5.088,-7.873 -2.776,-1.532 -6.51,-1.568 -9.291,-0.091 -1.482,0.785 -2.852,2.018 -3.963,3.567 C 0.332,-9.133 0.008,-8.618 -0.29,-8.075 -1.279,-5.52 -1.188,-2.448 0,0 M 111.837,40.788 111.835,3.56 c -0.006,-2.989 -0.11,-5.815 -0.623,-8.212 -0.479,-2.244 -1.361,-4.207 -2.551,-5.675 -1.155,-1.424 -2.747,-2.563 -4.487,-3.205 -1.74,-0.645 -3.717,-0.823 -5.561,-0.508 -1.879,0.324 -3.663,1.138 -5.154,2.353 -1.494,1.218 -2.67,2.818 -3.4,4.622 -1.18,2.929 -1.25,6.597 -1.216,10.739 l 0.116,14.236 c 0.019,2.239 0.004,4.441 -0.336,6.745 -0.404,2.757 -1.224,5.323 -2.434,7.624 -2.474,4.705 -6.721,8.452 -11.958,10.548 -6.591,2.638 -14.229,2.414 -20.426,-0.603 -2.105,-1.023 -4.057,-2.366 -5.782,-3.955 -0.162,0.243 -0.328,0.481 -0.498,0.718 -2.541,3.562 -5.823,6.569 -9.573,8.813 0.74,6.258 -0.487,12.67 -3.514,18.209 C 31.172,71.985 25.923,76.745 19.66,79.416 13.396,82.086 6.33,82.577 -0.242,80.798 -6.814,79.02 -12.667,75.029 -16.729,69.566 L -3.268,59.563 c 1.798,2.42 4.497,4.261 7.407,5.049 2.912,0.787 6.172,0.56 8.945,-0.622 2.773,-1.182 5.192,-3.378 6.64,-6.024 0.895,-1.638 1.442,-3.497 1.61,-5.383 l -65.659,0 0,-12.924 37.489,0 c -1.416,-1.676 -2.684,-3.476 -3.768,-5.388 -4.276,-7.545 -5.414,-16.093 -5.928,-22.698 -0.448,-5.769 -0.645,-12.588 1.298,-19.419 0.619,-2.18 1.421,-4.232 2.403,-6.137 0.189,-0.433 0.393,-0.863 0.608,-1.286 l 0.071,0.036 c 0.492,-0.855 1.023,-1.679 1.589,-2.467 2.349,-3.268 5.363,-5.934 8.712,-7.712 3.415,-1.814 7.228,-2.718 11.042,-2.718 3.961,0 7.921,0.976 11.442,2.92 6.858,3.788 11.53,11.005 12.188,18.83 0.625,7.43 -2.316,14.83 -7.869,19.798 -5.553,4.973 -13.229,7.079 -20.549,5.636 -2.249,-0.444 -4.401,-1.211 -6.401,-2.256 0.602,3.642 1.615,7.423 3.439,10.645 2.33,4.107 6.016,7.414 10.381,9.313 2.896,1.258 6.11,1.896 9.24,1.846 3.077,-0.05 6.069,-0.76 8.644,-2.052 2.597,-1.302 4.859,-3.24 6.55,-5.609 1.638,-2.295 2.844,-5.194 3.482,-8.379 0.302,-1.503 0.481,-3.065 0.591,-4.699 l 0.002,-25.469 13.8,0 0,27.164 c -0.198,2.061 0.253,4.193 1.267,6.004 1.016,1.807 2.6,3.303 4.466,4.211 2.747,1.336 6.194,1.409 9.221,0.199 2.153,-0.862 3.919,-2.369 4.849,-4.138 0.478,-0.912 0.81,-1.984 0.991,-3.196 0.196,-1.337 0.2,-2.821 0.187,-4.619 L 74.994,3.786 c -0.042,-5.437 0.095,-10.756 2.225,-16.036 1.602,-3.964 4.191,-7.48 7.493,-10.172 3.336,-2.718 7.333,-4.539 11.559,-5.266 4.27,-0.732 8.666,-0.328 12.708,1.168 4.091,1.514 7.702,4.097 10.439,7.473 2.557,3.156 4.401,7.131 5.336,11.501 0.791,3.707 0.924,7.424 0.93,11.067 l 0,37.245 -13.847,0.022 z"
         style="fill:#231f20;fill-opacity:1;fill-rule:nonzero;stroke:none"
         id="path4374"
         inkscape:connector-curvature="0" />
    </g>
  </g>
</svg>
