<?xml version="1.0" encoding="UTF-8" standalone="no"?>
<!-- Created with Inkscape (http://www.inkscape.org/) -->

<svg
   xmlns:dc="http://purl.org/dc/elements/1.1/"
   xmlns:cc="http://creativecommons.org/ns#"
   xmlns:rdf="http://www.w3.org/1999/02/22-rdf-syntax-ns#"
   xmlns:svg="http://www.w3.org/2000/svg"
   xmlns="http://www.w3.org/2000/svg"
   xmlns:sodipodi="http://sodipodi.sourceforge.net/DTD/sodipodi-0.dtd"
   xmlns:inkscape="http://www.inkscape.org/namespaces/inkscape"
   width="1000"
   height="1000"
   id="svg6337"
   version="1.1"
   inkscape:version="0.48+devel+osxmenu r12707"
   viewBox="0 0 1000 1000"
   sodipodi:docname="v_ii.svg">
  <defs
     id="defs5498" />
  <sodipodi:namedview
     inkscape:window-height="1002"
     inkscape:window-width="1680"
     inkscape:pageshadow="2"
     inkscape:pageopacity="0.0"
     borderopacity="1.0"
     bordercolor="#666666"
     pagecolor="#ffffff"
     id="base"
     showgrid="false"
     showguides="true"
     inkscape:guide-bbox="true"
     inkscape:zoom="0.32102648"
     inkscape:cx="665.40087"
     inkscape:cy="371.78265"
     inkscape:window-x="0"
     inkscape:window-y="22"
     inkscape:current-layer="layer1"
     inkscape:window-maximized="0">
    <sodipodi:guide
       orientation="horizontal"
       position="-3.1150078,218.05055"
       id="guide5596" />
    <sodipodi:guide
       orientation="0,1"
       position="311.50078,922.04232"
       id="guide6325" />
  </sodipodi:namedview>
  <metadata
     id="metadata5594">
    <rdf:RDF>
      <cc:Work
         rdf:about="">
        <dc:format>image/svg+xml</dc:format>
        <dc:type
           rdf:resource="http://purl.org/dc/dcmitype/StillImage" />
        <dc:title />
      </cc:Work>
    </rdf:RDF>
  </metadata>
  <g
     inkscape:label="Layer 1"
     inkscape:groupmode="layer"
     id="layer1">
    <g
       id="g4618"
       transform="matrix(5.214412,0,0,-5.214412,279.16588,233.585)">
      <path
         d="m 0,0 c -4.831,0 -8.747,-3.917 -8.747,-8.748 0,-4.831 3.916,-8.747 8.747,-8.747 4.831,0 8.747,3.916 8.747,8.747 C 8.6047065,-0.29759922 0,0 0,0 Z"
         style="fill:#373535;fill-opacity:1;fill-rule:nonzero;stroke:none"
         id="path4620"
         inkscape:connector-curvature="0"
         sodipodi:nodetypes="cssc" />
    </g>
    <g
       id="g4622"
       transform="matrix(5.214412,0,0,-5.214412,669.09578,324.80906)">
      <path
         d="m 0,0 c 4.831,0 8.747,3.916 8.747,8.747 0,4.831 -3.916,8.748 -8.747,8.748 -4.831,0 -8.747,-3.917 -8.747,-8.748 0,0 -0.036065,-8.59516249 8.747,-8.747 z"
         style="fill:#373535;fill-opacity:1;fill-rule:nonzero;stroke:none"
         id="path4624"
         inkscape:connector-curvature="0"
         sodipodi:nodetypes="csscc" />
    </g>
    <g
       id="g4626"
       transform="matrix(5.214412,0,0,-5.214412,687.01048,752.27612)">
      <path
         d="m 0,0 c -2.188,-4.776 -5.899,-9.007 -10.45,-11.911 -4.493,-2.865 -9.89,-4.485 -15.194,-4.56 -0.127,-0.002 -0.255,-0.003 -0.384,-0.003 -5.192,0 -10.458,1.467 -14.872,4.148 -3.953,2.399 -7.336,5.841 -9.69,9.822 l 0.014,0.008 c -0.089,0.14 -0.177,0.28 -0.263,0.421 -0.252,0.446 -0.492,0.898 -0.719,1.356 -2.338,4.727 -3.302,10.204 -2.72,15.425 1.095,7.61 5.974,14.86 12.767,18.955 6.812,4.106 15.597,5.191 23.495,2.9 5.09,-1.476 9.638,-4.209 13.152,-7.906 C -1.344,24.95 1.086,20.24 1.978,15.394 2.914,10.3 2.212,4.833 0,0 m 17.714,18.288 c -1.446,7.863 -5.346,15.459 -10.98,21.389 -5.466,5.751 -12.485,9.988 -20.297,12.251 -9.057,2.625 -18.914,2.332 -27.73,-0.649 6.65,20.005 10.536,41.113 11.424,62.11 l 14.518,0 0,16 -93.039,0 -0.316,-0.007 c -3.938,-0.155 -7.807,-1.322 -11.192,-3.376 -3.262,-1.981 -6.063,-4.795 -8.097,-8.134 -1.797,-2.949 -3.031,-6.342 -3.669,-10.087 -0.519,-3.052 -0.581,-5.89 -0.607,-9.109 l 0.257,-76.729 16,0.053 -0.257,76.64 c 0.02,2.511 0.061,4.582 0.38,6.462 0.296,1.737 0.82,3.231 1.559,4.444 0.709,1.164 1.656,2.127 2.734,2.782 1.019,0.617 2.22,0.992 3.397,1.061 l 62.311,0 c -1.115,-24.51 -6.621,-49.163 -16.085,-71.722 -0.423,-1.009 -0.855,-2.018 -1.287,-3.027 -2.925,-6.829 -5.947,-13.89 -6.888,-21.909 -0.003,-0.019 -0.006,-0.039 -0.009,-0.058 -1.259,-9.278 0.68,-18.733 5.467,-26.757 3.713,-6.525 9.025,-11.995 15.486,-15.918 6.981,-4.24 14.975,-6.472 23.157,-6.472 0.21,0 0.421,0.002 0.631,0.005 8.355,0.118 16.506,2.562 23.572,7.069 7.117,4.542 12.94,11.196 16.394,18.74 3.087258,7.30186317 4.486763,16.781365 3.166,24.948 z"
         style="fill:#373535;fill-opacity:1;fill-rule:nonzero;stroke:none"
         id="path4628"
         inkscape:connector-curvature="0"
         sodipodi:nodetypes="cccsccccccccccccccccccccccccccccccccccccccscccc" />
    </g>
  </g>
</svg>
