<?xml version="1.0" encoding="UTF-8" standalone="no"?>
<!-- Created with Inkscape (http://www.inkscape.org/) -->

<svg
   xmlns:dc="http://purl.org/dc/elements/1.1/"
   xmlns:cc="http://creativecommons.org/ns#"
   xmlns:rdf="http://www.w3.org/1999/02/22-rdf-syntax-ns#"
   xmlns:svg="http://www.w3.org/2000/svg"
   xmlns="http://www.w3.org/2000/svg"
   xmlns:sodipodi="http://sodipodi.sourceforge.net/DTD/sodipodi-0.dtd"
   xmlns:inkscape="http://www.inkscape.org/namespaces/inkscape"
   width="1000"
   height="1000"
   id="svg6337"
   version="1.1"
   inkscape:version="0.48+devel+osxmenu r12707"
   viewBox="0 0 1000 1000"
   sodipodi:docname="va.svg">
  <defs
     id="defs5498" />
  <sodipodi:namedview
     inkscape:window-height="1002"
     inkscape:window-width="1680"
     inkscape:pageshadow="2"
     inkscape:pageopacity="0.0"
     borderopacity="1.0"
     bordercolor="#666666"
     pagecolor="#ffffff"
     id="base"
     showgrid="false"
     showguides="true"
     inkscape:guide-bbox="true"
     inkscape:zoom="0.32102648"
     inkscape:cx="265.12236"
     inkscape:cy="652.13336"
     inkscape:window-x="0"
     inkscape:window-y="22"
     inkscape:current-layer="layer1"
     inkscape:window-maximized="0">
    <sodipodi:guide
       orientation="horizontal"
       position="-3.1150078,218.05055"
       id="guide5596" />
    <sodipodi:guide
       orientation="0,1"
       position="311.50078,922.04232"
       id="guide6325" />
  </sodipodi:namedview>
  <metadata
     id="metadata5594">
    <rdf:RDF>
      <cc:Work
         rdf:about="">
        <dc:format>image/svg+xml</dc:format>
        <dc:type
           rdf:resource="http://purl.org/dc/dcmitype/StillImage" />
        <dc:title></dc:title>
      </cc:Work>
    </rdf:RDF>
  </metadata>
  <g
     inkscape:label="Layer 1"
     inkscape:groupmode="layer"
     id="layer1">
    <g
       id="g4626"
       transform="matrix(5.214412,0,0,-5.214412,687.01048,752.27612)" />
    <g
       id="g4364"
       transform="matrix(4.7045362,0,0,-4.7045362,153.39463,581.69596)">
      <path
         d="m 0,0 c -0.095,-0.592 -0.137,-1.183 -0.125,-1.764 0.057,-2.722 1.388,-5.472 3.473,-7.176 2.083,-1.7 4.998,-2.434 7.604,-1.91 1.613,0.325 3.162,1.12 4.365,2.241 1.204,1.121 2.109,2.61 2.546,4.192 0.438,1.587 0.428,3.331 -0.03,4.91 -0.457,1.578 -1.38,3.057 -2.597,4.162 -1.217,1.106 -2.777,1.88 -4.393,2.186 C 9.257,7.139 7.042,6.923 5.458,6.317 3.91,5.725 2.771,4.874 1.765,3.562 0.977,2.532 0.341,1.229 0,0 m 117.703,-42.614 -75.578,0.128 3.921,9.306 c 3.744,8.89 3.172,19.659 -1.49,28.103 C 41.09,1.2 35.332,6.249 28.694,9.068 c 0.864,-1.519 1.551,-3.142 2.042,-4.839 1.155,-3.991 1.182,-8.216 0.075,-12.221 -1.105,-4.004 -3.298,-7.619 -6.34,-10.45 -3.039,-2.829 -6.799,-4.758 -10.874,-5.578 -6.545,-1.314 -13.553,0.435 -18.748,4.677 -5.123,4.186 -8.264,10.652 -8.405,17.296 -0.014,0.721 0.004,1.441 0.055,2.157 l -0.105,0.011 c 0.087,0.854 0.233,1.718 0.436,2.581 0.545,2.974 1.66,5.864 3.304,8.534 2.285,3.712 5.567,6.905 9.493,9.236 6.728,3.99 15.298,5.386 24.121,3.936 13.688,-2.255 25.864,-10.849 32.567,-22.992 5.128,-9.287 6.795,-20.176 4.889,-30.503 l 48.129,-0.08 c 3.338,7.982 5.016,17.412 4.65,26.477 -0.411,10.175 -3.469,20.128 -8.846,28.78 C 99.761,34.741 92.191,41.89 83.248,46.764 74.303,51.64 64.19,54.126 54.007,53.955 41.273,53.741 28.728,49.31 18.685,41.476 l -8.264,10.591 c 12.33,9.618 27.729,15.057 43.363,15.319 12.476,0.2 24.912,-2.844 35.892,-8.826 10.979,-5.985 20.271,-14.76 26.871,-25.38 6.599,-10.618 10.354,-22.836 10.858,-35.329 0.522,-12.925 -2.256,-25.999 -7.823,-36.817 l -1.879,-3.648 z"
         style="fill:#231f20;fill-opacity:1;fill-rule:nonzero;stroke:none"
         id="path4366"
         inkscape:connector-curvature="0" />
    </g>
  </g>
</svg>
