<?xml version="1.0" encoding="UTF-8" standalone="no"?>
<!-- Created with Inkscape (http://www.inkscape.org/) -->

<svg
   xmlns:dc="http://purl.org/dc/elements/1.1/"
   xmlns:cc="http://creativecommons.org/ns#"
   xmlns:rdf="http://www.w3.org/1999/02/22-rdf-syntax-ns#"
   xmlns:svg="http://www.w3.org/2000/svg"
   xmlns="http://www.w3.org/2000/svg"
   xmlns:sodipodi="http://sodipodi.sourceforge.net/DTD/sodipodi-0.dtd"
   xmlns:inkscape="http://www.inkscape.org/namespaces/inkscape"
   width="1000"
   height="1000"
   id="svg6337"
   version="1.1"
   inkscape:version="0.48+devel+osxmenu r12707"
   viewBox="0 0 1000 1000"
   sodipodi:docname="ii.svg">
  <defs
     id="defs5498" />
  <sodipodi:namedview
     inkscape:window-height="1002"
     inkscape:window-width="1680"
     inkscape:pageshadow="2"
     inkscape:pageopacity="0.0"
     borderopacity="1.0"
     bordercolor="#666666"
     pagecolor="#ffffff"
     id="base"
     showgrid="false"
     showguides="true"
     inkscape:guide-bbox="true"
     inkscape:zoom="0.64205296"
     inkscape:cx="1048.8717"
     inkscape:cy="465.23289"
     inkscape:window-x="0"
     inkscape:window-y="22"
     inkscape:current-layer="layer1"
     inkscape:window-maximized="0">
    <sodipodi:guide
       orientation="horizontal"
       position="-3.1150078,218.05055"
       id="guide5596" />
    <sodipodi:guide
       orientation="0,1"
       position="311.50078,922.04232"
       id="guide6325" />
  </sodipodi:namedview>
  <metadata
     id="metadata5594">
    <rdf:RDF>
      <cc:Work
         rdf:about="">
        <dc:format>image/svg+xml</dc:format>
        <dc:type
           rdf:resource="http://purl.org/dc/dcmitype/StillImage" />
        <dc:title></dc:title>
      </cc:Work>
    </rdf:RDF>
  </metadata>
  <g
     inkscape:label="Layer 1"
     inkscape:groupmode="layer"
     id="layer1">
    <g
       id="g4626"
       transform="matrix(5.214412,0,0,-5.214412,687.01048,752.27612)" />
    <g
       id="g4554"
       transform="matrix(11.714308,0,0,-11.714308,875.47136,237.99855)">
      <path
         d="m 0,0 c -0.063,0 -0.124,-0.003 -0.185,-0.009 -0.667,-0.061 -1.325,-0.47 -1.675,-1.04 -0.332,-0.542 -0.411,-1.273 -0.201,-1.863 0.212,-0.589 0.727,-1.096 1.314,-1.291 0.482,-0.162 1.071,-0.143 1.61,0.051 0.208,0.075 0.416,0.176 0.615,0.302 0.354,0.323 0.615,0.761 0.705,1.225 0.128,0.658 -0.08,1.403 -0.529,1.9 C 1.245,-0.272 0.612,0 0,0 m -0.042,-8.85 c -0.729,0 -1.452,0.113 -2.135,0.34 -1.92,0.637 -3.474,2.159 -4.157,4.072 -0.675,1.89 -0.448,4.044 0.607,5.762 1.103,1.799 3.02,2.992 5.124,3.188 C 0.412,4.606 1.432,4.463 2.373,4.111 2.362,4.128 2.354,4.145 2.343,4.16 1.14,6.195 -0.855,7.848 -3.272,8.813 -5.541,9.718 -8.188,10.029 -10.927,9.71 -15.569,9.17 -19.684,7.135 -22.79,3.676 c -3.87,0 -5.767,-0.027 -5.767,-0.027 3.807,5.816 10.201,9.766 17.105,10.568 3.486,0.406 6.896,-0.005 9.864,-1.19 C 1.754,11.693 4.535,9.364 6.249,6.473 7.389,4.545 8.008,2.448 8.035,0.406 8.067,-1.954 7.311,-4.198 5.907,-5.908 5.406,-6.517 4.838,-7.047 4.217,-7.479 3.828,-7.787 3.406,-8.056 2.953,-8.275 L 2.924,-8.211 C 2.749,-8.289 2.571,-8.361 2.393,-8.424 1.602,-8.707 0.774,-8.85 -0.042,-8.85"
         style="fill:#110f0d;fill-opacity:1;fill-rule:nonzero;stroke:none"
         id="path4556"
         inkscape:connector-curvature="0" />
    </g>
  </g>
</svg>
