<?xml version="1.0" encoding="UTF-8" standalone="no"?>
<!-- Created with Inkscape (http://www.inkscape.org/) -->

<svg
   xmlns:dc="http://purl.org/dc/elements/1.1/"
   xmlns:cc="http://creativecommons.org/ns#"
   xmlns:rdf="http://www.w3.org/1999/02/22-rdf-syntax-ns#"
   xmlns:svg="http://www.w3.org/2000/svg"
   xmlns="http://www.w3.org/2000/svg"
   xmlns:sodipodi="http://sodipodi.sourceforge.net/DTD/sodipodi-0.dtd"
   xmlns:inkscape="http://www.inkscape.org/namespaces/inkscape"
   width="1000"
   height="1000"
   id="svg6337"
   version="1.1"
   inkscape:version="0.48+devel+osxmenu r12707"
   viewBox="0 0 1000 1000"
   sodipodi:docname="ma.svg">
  <defs
     id="defs5498" />
  <sodipodi:namedview
     inkscape:window-height="1002"
     inkscape:window-width="1680"
     inkscape:pageshadow="2"
     inkscape:pageopacity="0.0"
     borderopacity="1.0"
     bordercolor="#666666"
     pagecolor="#ffffff"
     id="base"
     showgrid="false"
     showguides="true"
     inkscape:guide-bbox="true"
     inkscape:zoom="0.32102648"
     inkscape:cx="265.12236"
     inkscape:cy="652.13336"
     inkscape:window-x="0"
     inkscape:window-y="22"
     inkscape:current-layer="layer1"
     inkscape:window-maximized="0">
    <sodipodi:guide
       orientation="horizontal"
       position="-3.1150078,218.05055"
       id="guide5596" />
    <sodipodi:guide
       orientation="0,1"
       position="311.50078,922.04232"
       id="guide6325" />
  </sodipodi:namedview>
  <metadata
     id="metadata5594">
    <rdf:RDF>
      <cc:Work
         rdf:about="">
        <dc:format>image/svg+xml</dc:format>
        <dc:type
           rdf:resource="http://purl.org/dc/dcmitype/StillImage" />
        <dc:title></dc:title>
      </cc:Work>
    </rdf:RDF>
  </metadata>
  <g
     inkscape:label="Layer 1"
     inkscape:groupmode="layer"
     id="layer1">
    <g
       id="g4626"
       transform="matrix(5.214412,0,0,-5.214412,687.01048,752.27612)" />
    <g
       id="g4122"
       transform="matrix(5.0412065,0,0,-5.0412065,370.39306,657.90456)">
      <path
         d="m 0,0 c 0.092,1.436 0.311,2.841 0.662,4.194 0.142,0.544 0.295,1.055 0.46,1.514 0.9,2.527 2.484,4.706 4.459,6.131 1.938,1.398 4.29,2.087 6.477,1.887 2.069,-0.188 4.073,-1.249 5.23,-2.764 1.08,-1.416 1.49,-3.422 1.024,-4.987 C 18.027,5.021 17.401,4.053 16.55,3.251 15.638,2.394 14.411,1.666 13.006,1.149 9.873,0.002 6,-0.053 1.63,-0.012 L 0,0 Z M 88.2,35.015 C 80.179,50.23 64.97,61.596 47.514,65.415 36.838,67.752 25.669,67.312 15.212,64.143 4.757,60.975 -4.779,55.142 -12.364,47.274 l 10.29,-9.92 c 5.895,6.114 13.306,10.647 21.431,13.11 8.128,2.462 16.807,2.804 25.101,0.988 13.392,-2.929 25.016,-11.566 31.098,-23.104 4.33,-8.214 5.862,-17.774 4.313,-26.919 -1.55,-9.155 -6.147,-17.67 -12.942,-23.98 -6.798,-6.314 -15.626,-10.262 -24.859,-11.116 -9.239,-0.851 -18.635,1.411 -26.461,6.383 -5.41,3.437 -9.671,7.906 -12.379,12.969 l 0.006,0 c 4.977,0 9.859,0.276 14.688,2.044 3.253,1.194 6.086,2.914 8.423,5.114 2.695,2.535 4.653,5.662 5.663,9.046 1.763,5.913 0.481,12.708 -3.353,17.739 -3.614,4.738 -9.19,7.776 -15.3,8.332 C 7.708,28.479 1.981,26.866 -2.783,23.428 -7.086,20.321 -10.481,15.73 -12.344,10.501 -12.649,9.643 -12.928,8.728 -13.174,7.782 -13.821,5.284 -14.201,2.723 -14.32,0.138 l -31.977,0.3 -0.013,43.649 -14.292,-0.005 0.015,-57.805 48.263,-0.454 c 0.608,-1.854 1.352,-3.682 2.226,-5.471 3.83,-7.825 10.069,-14.637 18.042,-19.704 9.035,-5.735 19.633,-8.784 30.311,-8.784 1.709,0 3.422,0.077 5.129,0.237 12.357,1.141 24.173,6.425 33.271,14.875 9.086,8.439 15.234,19.827 17.308,32.067 2.069,12.222 0.023,24.995 -5.763,35.972"
         style="fill:#231f20;fill-opacity:1;fill-rule:nonzero;stroke:none"
         id="path4124"
         inkscape:connector-curvature="0" />
    </g>
  </g>
</svg>
