<?xml version="1.0" encoding="UTF-8" standalone="no"?>
<!-- Created with Inkscape (http://www.inkscape.org/) -->

<svg
   xmlns:dc="http://purl.org/dc/elements/1.1/"
   xmlns:cc="http://creativecommons.org/ns#"
   xmlns:rdf="http://www.w3.org/1999/02/22-rdf-syntax-ns#"
   xmlns:svg="http://www.w3.org/2000/svg"
   xmlns="http://www.w3.org/2000/svg"
   xmlns:sodipodi="http://sodipodi.sourceforge.net/DTD/sodipodi-0.dtd"
   xmlns:inkscape="http://www.inkscape.org/namespaces/inkscape"
   width="1000"
   height="1000"
   id="svg6337"
   version="1.1"
   inkscape:version="0.48+devel+osxmenu r12707"
   viewBox="0 0 1000 1000"
   sodipodi:docname="v_o.svg">
  <defs
     id="defs5498" />
  <sodipodi:namedview
     inkscape:window-height="1050"
     inkscape:window-width="1680"
     inkscape:pageshadow="2"
     inkscape:pageopacity="0.0"
     borderopacity="1.0"
     bordercolor="#666666"
     pagecolor="#ffffff"
     id="base"
     showgrid="false"
     showguides="true"
     inkscape:guide-bbox="true"
     inkscape:zoom="1.2841059"
     inkscape:cx="420.3302"
     inkscape:cy="567.45595"
     inkscape:window-x="0"
     inkscape:window-y="0"
     inkscape:current-layer="layer1"
     inkscape:window-maximized="0">
    <sodipodi:guide
       orientation="horizontal"
       position="-3.1150078,218.05055"
       id="guide5596" />
    <sodipodi:guide
       orientation="0,1"
       position="311.50078,922.04232"
       id="guide6325" />
  </sodipodi:namedview>
  <metadata
     id="metadata5594">
    <rdf:RDF>
      <cc:Work
         rdf:about="">
        <dc:format>image/svg+xml</dc:format>
        <dc:type
           rdf:resource="http://purl.org/dc/dcmitype/StillImage" />
        <dc:title />
      </cc:Work>
    </rdf:RDF>
  </metadata>
  <g
     inkscape:label="Layer 1"
     inkscape:groupmode="layer"
     id="layer1">
    <g
       id="g4626"
       transform="matrix(5.214412,0,0,-5.214412,687.01048,752.27612)" />
    <g
       id="g4774"
       transform="matrix(5.4585699,0,0,-5.4585699,752.93297,199.42023)">
      <path
         d="m 0,0 c -4.25,8.494 -10.976,16.041 -19.447,21.825 -7.427,5.069 -16.15,8.804 -25.935,11.1 -22,5.161 -44.788,1.709 -62.524,-9.473 -11.626,-7.331 -21.275,-18.204 -27.163,-30.616 l 15.316,-7.268 c 4.529,9.544 11.948,17.905 20.89,23.543 13.919,8.775 32.003,11.438 49.608,7.31 7.742,-1.818 14.553,-4.711 20.248,-8.598 6.096,-4.161 10.883,-9.49 13.845,-15.409 2.295,-4.586 3.329,-9.236 2.99,-13.447 -0.339,-4.216 -2.191,-8.138 -4.954,-10.493 -1.367,-1.164 -2.949,-1.974 -4.577,-2.344 -1.558,-0.355 -3.201,-0.293 -4.617,0.177 -1.365,0.451 -2.56,1.286 -3.367,2.352 -0.757,0.998 -1.181,2.238 -1.167,3.401 0.07061,1.796116 1.040562,2.953363 2.156,4.072 l -11.558,12.389 c -1.114,-0.966 -2.125,-2.05 -3.017,-3.225 -2.279,-2.713 -4.226,-5.686 -5.807,-8.879 -6.455,-13.016 -6.053,-28.978 1.048,-41.655 3.726,-6.652 9.184,-12.203 15.624,-16.165 -0.699383,-0.717632 -1.441616,-1.504813 -2.066,-2.163 -2.479,-2.627 -4.823,-5.108 -7.278,-6.433 -3.099,-1.671 -7.391,-1.833 -11.204,-0.42 -4.979227,2.53155 -8.54816,5.579038 -11.069,9.655 l -14.526,-0.161 c -5.019202,-7.770731 -13.989946,-11.6035 -22.364,-10.042 -6.243,1.238 -12.067,5.497 -15.581,11.392 -3.423,5.742 -4.746,13.169 -3.629,20.373 0.646,4.162 2.074,8.217 4.124,11.721 2.478,4.228 5.792,7.582 9.585,9.699 3.807,2.123 8.209,2.958 12.084,2.29 5.68931,-1.534283 10.352415,-5.085562 10.985,-10.697 0.168,-1.627 -0.08,-3.313 -0.699,-4.756 -1.929035,-3.842379 -5.463921,-5.872117 -9.38,-6.177 -4.049,-0.275 -8.317,1.567 -10.895,4.691 l -13.076,-10.793 c 6.035,-7.309 15.648,-11.451 25.115,-10.813 5.068,0.343 9.924,1.977 14.045,4.728 4.378,2.926 7.761,6.972 9.777,11.692 1.76,4.1 2.442,8.653 1.98,13.16 -0.443,4.31 -1.938,8.553 -4.331,12.273 -4.527,7.034 -12.051,11.918 -20.638,13.399 -7.747,1.336 -15.994,-0.153 -23.229,-4.194 -6.43,-3.588 -11.946,-9.097 -15.952,-15.935 -3.161,-5.401 -5.265,-11.352 -6.248,-17.688 -1.738,-11.203 0.327,-22.445 5.819,-31.654 5.933,-9.952 15.967,-17.182 26.842,-19.341 7.694,-1.527 15.874,-0.599 23.031,2.615 3.611,1.62 6.958,3.822 9.9,6.475 3.692,-3.479 7.898,-6.129 12.443,-7.812 3.618,-1.34 7.429,-2.003 11.184,-2.003 4.932,0 9.771,1.145 13.957,3.403 4.857,2.62 8.416,6.387 11.556,9.711 1.802822,1.873503 3.728856,3.947226 5.658,5.373 1.470509,0.983032 2.954825,1.83082 4.604,1.92 l 0.335,16.91 c -8.839,0.791 -17.354,6.308 -21.692,14.052 -1.6,2.856 -2.644,6.037 -3.127,9.316 1.49,-0.882 3.076,-1.608 4.725,-2.153 4.367,-1.444 9.103,-1.656 13.694,-0.613 4.288,0.973 8.374,3.038 11.817,5.972 6.2,5.282 10.158,13.315 10.86,22.037 0,0 0.2480373,12.392033 -4.728,22.394 z"
         style="fill:#373535;fill-opacity:1;fill-rule:nonzero;stroke:none"
         id="path4776"
         inkscape:connector-curvature="0"
         sodipodi:nodetypes="cccccccccsccccccccccccccccccccccccccccccccccccscccccssccccccccccc" />
    </g>
  </g>
</svg>
