<?xml version="1.0" encoding="UTF-8" standalone="no"?>
<!-- Created with Inkscape (http://www.inkscape.org/) -->

<svg
   xmlns:dc="http://purl.org/dc/elements/1.1/"
   xmlns:cc="http://creativecommons.org/ns#"
   xmlns:rdf="http://www.w3.org/1999/02/22-rdf-syntax-ns#"
   xmlns:svg="http://www.w3.org/2000/svg"
   xmlns="http://www.w3.org/2000/svg"
   xmlns:sodipodi="http://sodipodi.sourceforge.net/DTD/sodipodi-0.dtd"
   xmlns:inkscape="http://www.inkscape.org/namespaces/inkscape"
   width="1000"
   height="1000"
   id="svg6337"
   version="1.1"
   inkscape:version="0.48+devel+osxmenu r12707"
   viewBox="0 0 1000 1000"
   sodipodi:docname="v_u.svg">
  <defs
     id="defs5498" />
  <sodipodi:namedview
     inkscape:window-height="1002"
     inkscape:window-width="1680"
     inkscape:pageshadow="2"
     inkscape:pageopacity="0.0"
     borderopacity="1.0"
     bordercolor="#666666"
     pagecolor="#ffffff"
     id="base"
     showgrid="false"
     showguides="true"
     inkscape:guide-bbox="true"
     inkscape:zoom="0.32102648"
     inkscape:cx="782.21366"
     inkscape:cy="652.13336"
     inkscape:window-x="0"
     inkscape:window-y="22"
     inkscape:current-layer="layer1"
     inkscape:window-maximized="0">
    <sodipodi:guide
       orientation="horizontal"
       position="-3.1150078,218.05055"
       id="guide5596" />
    <sodipodi:guide
       orientation="0,1"
       position="311.50078,922.04232"
       id="guide6325" />
  </sodipodi:namedview>
  <metadata
     id="metadata5594">
    <rdf:RDF>
      <cc:Work
         rdf:about="">
        <dc:format>image/svg+xml</dc:format>
        <dc:type
           rdf:resource="http://purl.org/dc/dcmitype/StillImage" />
        <dc:title></dc:title>
      </cc:Work>
    </rdf:RDF>
  </metadata>
  <g
     inkscape:label="Layer 1"
     inkscape:groupmode="layer"
     id="layer1">
    <g
       id="g4626"
       transform="matrix(5.214412,0,0,-5.214412,687.01048,752.27612)" />
    <g
       id="g4654"
       transform="matrix(5.5271308,0,0,-5.5271308,209.35118,319.2374)">
      <path
         d="m 0,0 c 3.428,0 6.217,-2.79 6.217,-6.218 0,-3.429 -2.789,-6.219 -6.217,-6.219 -3.429,0 -6.219,2.79 -6.219,6.219 C -6.219,-2.79 -3.429,0 0,0 m 98.184,-79.43 -0.485,-0.435 c -19.885,-17.859 -46.613,-28.509 -73.33,-29.219 -7.912,-0.209 -14.631,0.449 -20.602,2.027 -6.706,1.773 -12.569,4.816 -16.955,8.8 -4.679,4.249 -7.751,9.635 -8.651,15.167 -0.918,5.647 0.536,11.373 3.891,15.318 2.315,2.722 5.772,4.955 10.274,6.638 4.307,1.609 8.994,2.543 13.963,3.533 l 0.617,0.123 c 4.979,0.991 11.172,2.224 17.055,4.594 6.965,2.806 12.451,6.777 16.307,11.802 4.515,5.893 6.83,13.375 6.516,21.067 -0.29,7.049 -2.854,14.203 -7.224,20.144 -6.396,8.697 -16.406,14.617 -27.462,16.243 -1.92,0.283 -3.832,0.426 -5.682,0.426 -5.375,0 -10.241,-1.166 -14.465,-3.464 -1.185,-0.644 -2.324,-1.387 -3.341,-2.175 l -0.717,-0.498 0.029,-0.049 c -1.754,-1.45 -3.265,-3.105 -4.494,-4.924 -2.375,-3.506 -3.662,-7.519 -3.719,-11.605 -0.084,-6.109 2.696,-12.062 7.436,-15.922 3.588,-2.926 8.148,-4.536 12.839,-4.536 1.426,0 2.848,0.151 4.226,0.449 4.642,1.005 8.81,3.626 11.736,7.382 2.905,3.726 4.437,8.385 4.316,13.119 -0.027,0.986 -0.123,1.971 -0.289,2.944 2.871,-1.739 5.343,-3.964 7.206,-6.495 2.575,-3.502 4.085,-7.646 4.249,-11.669 0.166,-4.046 -1.057,-8.086 -3.356,-11.084 -2.158,-2.813 -5.472,-5.135 -9.855,-6.901 -4.221,-1.699 -8.791,-2.677 -14.328,-3.778 l -0.601,-0.119 c -5.345,-1.066 -10.87,-2.168 -16.343,-4.212 -6.984,-2.612 -12.57,-6.338 -16.601,-11.076 -6.236,-7.333 -8.984,-17.705 -7.352,-27.743 1.454,-8.948 6.245,-17.5 13.49,-24.078 6.202,-5.632 14.278,-9.878 23.358,-12.278 6.556,-1.734 13.666,-2.577 21.733,-2.577 1.053,0 2.12,0.014 3.204,0.044 30.311,0.805 60.633,12.887 83.191,33.148 l 0.483,0.434 -10.267,11.435 z"
         style="fill:#373535;fill-opacity:1;fill-rule:nonzero;stroke:none"
         id="path4656"
         inkscape:connector-curvature="0" />
    </g>
  </g>
</svg>
