<?xml version="1.0" encoding="UTF-8" standalone="no"?>
<!-- Created with Inkscape (http://www.inkscape.org/) -->

<svg
   xmlns:dc="http://purl.org/dc/elements/1.1/"
   xmlns:cc="http://creativecommons.org/ns#"
   xmlns:rdf="http://www.w3.org/1999/02/22-rdf-syntax-ns#"
   xmlns:svg="http://www.w3.org/2000/svg"
   xmlns="http://www.w3.org/2000/svg"
   xmlns:sodipodi="http://sodipodi.sourceforge.net/DTD/sodipodi-0.dtd"
   xmlns:inkscape="http://www.inkscape.org/namespaces/inkscape"
   width="1000"
   height="1000"
   id="svg6337"
   version="1.1"
   inkscape:version="0.48+devel+osxmenu r12707"
   viewBox="0 0 1000 1000"
   sodipodi:docname="ya.svg">
  <defs
     id="defs5498" />
  <sodipodi:namedview
     inkscape:window-height="1002"
     inkscape:window-width="1680"
     inkscape:pageshadow="2"
     inkscape:pageopacity="0.0"
     borderopacity="1.0"
     bordercolor="#666666"
     pagecolor="#ffffff"
     id="base"
     showgrid="false"
     showguides="true"
     inkscape:guide-bbox="true"
     inkscape:zoom="0.32102648"
     inkscape:cx="265.12236"
     inkscape:cy="652.13336"
     inkscape:window-x="0"
     inkscape:window-y="22"
     inkscape:current-layer="layer1"
     inkscape:window-maximized="0">
    <sodipodi:guide
       orientation="horizontal"
       position="-3.1150078,218.05055"
       id="guide5596" />
    <sodipodi:guide
       orientation="0,1"
       position="311.50078,922.04232"
       id="guide6325" />
  </sodipodi:namedview>
  <metadata
     id="metadata5594">
    <rdf:RDF>
      <cc:Work
         rdf:about="">
        <dc:format>image/svg+xml</dc:format>
        <dc:type
           rdf:resource="http://purl.org/dc/dcmitype/StillImage" />
        <dc:title></dc:title>
      </cc:Work>
    </rdf:RDF>
  </metadata>
  <g
     inkscape:label="Layer 1"
     inkscape:groupmode="layer"
     id="layer1">
    <g
       id="g4626"
       transform="matrix(5.214412,0,0,-5.214412,687.01048,752.27612)" />
    <g
       id="g4266"
       transform="matrix(4.7610204,0,0,-4.7610204,216.44393,783.97193)">
      <path
         d="m 0,0 c -2.511,0 -5.025,0.273 -7.495,0.825 -5.616,1.253 -10.908,3.921 -15.305,7.716 -8.556,7.388 -13.335,19.108 -12.472,30.593 0.746,9.888 5.472,19.278 12.967,25.763 7.677,6.644 14.612,9.114 25.59,9.114 l 0,-14.133 c -8.379,0 -11.814,-1.749 -16.341,-5.665 -4.626,-4.003 -7.663,-10.037 -8.123,-16.141 -0.534,-7.1 2.384,-14.318 7.613,-18.834 2.637,-2.274 5.802,-3.872 9.149,-4.62 3.361,-0.749 6.859,-0.633 10.118,0.341 4.416,1.32 8.383,4.303 10.881,8.185 0.225,0.346 0.447,0.686 0.664,1.02 2.608,3.991 4.33,6.627 4.33,20.748 l 14.132,0.025 0.113,-30.507 18.177,0.002 c 5.334,0 7.817,4.63 7.817,7.759 0,7.496 -0.022,13.119 -0.039,17.595 -0.011,2.975 -0.021,5.446 -0.021,7.622 0,2.569 0.018,4.133 0.04,5.942 0.018,1.475 0.036,3.069 0.049,5.478 -2.019,0.566 -3.956,1.422 -5.733,2.543 -3.958,2.499 -7.056,6.284 -8.727,10.655 -0.272,0.709 -0.516,1.464 -0.72,2.232 -1.359,5.104 -0.892,10.563 1.315,15.369 2.2,4.798 6.032,8.712 10.791,11.016 4.764,2.301 10.213,2.879 15.342,1.625 5.137,-1.255 9.705,-4.279 12.867,-8.512 L 75.651,85.303 c -1.184,1.588 -2.967,2.766 -4.892,3.236 -1.923,0.471 -4.051,0.244 -5.835,-0.619 -1.78,-0.861 -3.275,-2.388 -4.101,-4.188 -0.827,-1.802 -1.01,-3.93 -0.501,-5.841 0.076,-0.286 0.163,-0.555 0.26,-0.807 0.584,-1.529 1.703,-2.897 3.076,-3.764 1.37,-0.865 3.09,-1.288 4.704,-1.158 l 7.628,0.608 0,-7.652 c 0,-6.555 -0.035,-9.538 -0.063,-11.934 -0.02,-1.757 -0.038,-3.279 -0.038,-5.776 0,-2.161 0.01,-4.615 0.021,-7.568 0.017,-4.49 0.039,-10.131 0.039,-17.649 0,-10.529 -8.392,-21.892 -21.951,-21.892 L 21.741,0.295 21.713,7.888 C 18.198,4.957 14.098,2.718 9.743,1.417 6.584,0.474 3.297,0 0,0"
         style="fill:#231f20;fill-opacity:1;fill-rule:nonzero;stroke:none"
         id="path4268"
         inkscape:connector-curvature="0" />
    </g>
  </g>
</svg>
