<?xml version="1.0" encoding="UTF-8" standalone="no"?>
<!-- Created with Inkscape (http://www.inkscape.org/) -->

<svg
   xmlns:dc="http://purl.org/dc/elements/1.1/"
   xmlns:cc="http://creativecommons.org/ns#"
   xmlns:rdf="http://www.w3.org/1999/02/22-rdf-syntax-ns#"
   xmlns:svg="http://www.w3.org/2000/svg"
   xmlns="http://www.w3.org/2000/svg"
   xmlns:sodipodi="http://sodipodi.sourceforge.net/DTD/sodipodi-0.dtd"
   xmlns:inkscape="http://www.inkscape.org/namespaces/inkscape"
   width="1000"
   height="1000"
   id="svg6337"
   version="1.1"
   inkscape:version="0.48+devel+osxmenu r12707"
   viewBox="0 0 1000 1000"
   sodipodi:docname="na.svg">
  <defs
     id="defs5498" />
  <sodipodi:namedview
     inkscape:window-height="1002"
     inkscape:window-width="1680"
     inkscape:pageshadow="2"
     inkscape:pageopacity="0.0"
     borderopacity="1.0"
     bordercolor="#666666"
     pagecolor="#ffffff"
     id="base"
     showgrid="false"
     showguides="true"
     inkscape:guide-bbox="true"
     inkscape:zoom="0.32102648"
     inkscape:cx="265.12236"
     inkscape:cy="652.13336"
     inkscape:window-x="0"
     inkscape:window-y="22"
     inkscape:current-layer="layer1"
     inkscape:window-maximized="0">
    <sodipodi:guide
       orientation="horizontal"
       position="-3.1150078,218.05055"
       id="guide5596" />
    <sodipodi:guide
       orientation="0,1"
       position="311.50078,922.04232"
       id="guide6325" />
  </sodipodi:namedview>
  <metadata
     id="metadata5594">
    <rdf:RDF>
      <cc:Work
         rdf:about="">
        <dc:format>image/svg+xml</dc:format>
        <dc:type
           rdf:resource="http://purl.org/dc/dcmitype/StillImage" />
        <dc:title></dc:title>
      </cc:Work>
    </rdf:RDF>
  </metadata>
  <g
     inkscape:label="Layer 1"
     inkscape:groupmode="layer"
     id="layer1">
    <g
       id="g4626"
       transform="matrix(5.214412,0,0,-5.214412,687.01048,752.27612)" />
    <g
       id="g4070"
       transform="matrix(5.8714429,0,0,-5.8714429,838.14853,518.38175)">
      <path
         d="m 0,0 c -3.696,5.714 -9.185,10.318 -15.46,12.961 -6.272,2.644 -13.398,3.363 -20.074,2.017 -4.382,-0.883 -8.601,-2.668 -12.327,-5.162 0.009,7.768 0.017,13.176 0.017,13.231 -0.025,8.04 3.771,16.902 7.442,25.473 0.508,1.185 1.008,2.357 1.5,3.523 l 3.974,9.804 -40.251,-0.056 -1.946,0.009 c -5.176,0.028 -9.247,0.054 -14.255,-1.387 -3.473,-0.997 -6.521,-2.546 -9.069,-4.602 -3.081,-2.485 -5.346,-5.663 -6.55,-9.192 -1.992,-5.848 -0.881,-12.539 2.897,-17.461 3.721,-4.849 9.844,-7.68 15.954,-7.396 4.992,0.228 9.799,2.465 13.192,6.138 3.388,3.672 5.234,8.643 5.062,13.638 l -0.028,0.852 -14.5,-0.495 0.03,-0.854 c 0.042,-1.191 -0.414,-2.426 -1.227,-3.303 -0.807,-0.876 -2,-1.432 -3.194,-1.485 -1.356,-0.07 -2.948,0.647 -3.783,1.736 -0.822,1.074 -1.098,2.698 -0.673,3.95 0.311,0.913 0.996,1.829 1.929,2.583 1.031,0.833 2.369,1.49 3.971,1.951 3.448,0.993 8.006,0.935 8.065,0.935 l 5.583,0.018 17.127,-0.006 c -2.937,-7.297 -5.783,-15.784 -5.755,-24.369 0,-0.056 -0.004,-2.134 -0.007,-5.532 -11.403,0.001 -22.804,0 -34.208,-0.014 -9.524,-0.008 -19.045,-0.024 -28.567,-0.044 l -3.466,-0.007 -2.173,-2.702 c -4.17,-5.189 -6.513,-11.713 -6.599,-18.37 -0.088,-6.656 2.084,-13.238 6.119,-18.535 2.684,-3.523 5.989,-6.223 8.907,-8.606 l 0.881,-0.72 c 2.486,-2.04 5.034,-4.234 6.476,-6.666 1.645,-2.77 2.346,-4.86 2.348,-6.983 l 14.506,0.006 c -0.004,6.282 -2.501,11.216 -4.378,14.38 -2.644,4.455 -6.421,7.745 -9.749,10.475 l -0.909,0.745 c -2.52,2.056 -4.896,3.998 -6.542,6.157 -2.051,2.692 -3.202,6.176 -3.156,9.557 0.03,2.32 0.623,4.672 1.677,6.772 8.213,0.016 16.425,0.028 24.639,0.036 11.392,0.014 22.783,0.015 34.173,0.013 -0.024,-18.14 -0.056,-42.821 -0.056,-48.2 l 0.853,0 0.853,0 11.093,0 0.854,0 0.852,0 c 0,3.354 0.015,14.634 0.029,27.082 l 0.034,0 c 0,6.065 2.569,10.851 4.973,13.31 2.744,2.807 6.376,4.778 10.223,5.554 3.845,0.773 7.959,0.361 11.576,-1.164 3.616,-1.524 6.781,-4.179 8.916,-7.474 2.163,-3.346 3.37,-7.541 3.397,-11.813 0.028,-4.202 -1.047,-8.567 -3.108,-12.623 -3.846,-7.573 -11.206,-14.105 -20.719,-18.393 -9.297,-4.191 -19.522,-6.004 -30.345,-7.926 -6.486,-1.151 -13.195,-2.341 -19.785,-4.096 -17.335,-4.614 -33.733,-13.181 -47.421,-24.774 l 9.373,-11.069 c 12.058,10.214 26.508,17.761 41.778,21.826 5.997,1.597 12.114,2.683 18.59,3.831 11.222,1.991 22.826,4.05 33.771,8.983 12.517,5.643 22.351,14.539 27.69,25.049 3.103,6.111 4.724,12.778 4.682,19.283 C 5.679,-12.497 3.7,-5.719 0,0"
         style="fill:#231f20;fill-opacity:1;fill-rule:nonzero;stroke:none"
         id="path4072"
         inkscape:connector-curvature="0" />
    </g>
  </g>
</svg>
