<?xml version="1.0" encoding="UTF-8" standalone="no"?>
<!-- Created with Inkscape (http://www.inkscape.org/) -->

<svg
   xmlns:dc="http://purl.org/dc/elements/1.1/"
   xmlns:cc="http://creativecommons.org/ns#"
   xmlns:rdf="http://www.w3.org/1999/02/22-rdf-syntax-ns#"
   xmlns:svg="http://www.w3.org/2000/svg"
   xmlns="http://www.w3.org/2000/svg"
   xmlns:sodipodi="http://sodipodi.sourceforge.net/DTD/sodipodi-0.dtd"
   xmlns:inkscape="http://www.inkscape.org/namespaces/inkscape"
   width="1000"
   height="1000"
   id="svg6337"
   version="1.1"
   inkscape:version="0.48+devel+osxmenu r12707"
   viewBox="0 0 1000 1000"
   sodipodi:docname="Da.svg">
  <defs
     id="defs5498" />
  <sodipodi:namedview
     inkscape:window-height="1002"
     inkscape:window-width="1680"
     inkscape:pageshadow="2"
     inkscape:pageopacity="0.0"
     borderopacity="1.0"
     bordercolor="#666666"
     pagecolor="#ffffff"
     id="base"
     showgrid="false"
     showguides="true"
     inkscape:guide-bbox="true"
     inkscape:zoom="0.32102648"
     inkscape:cx="-251.96894"
     inkscape:cy="652.13336"
     inkscape:window-x="0"
     inkscape:window-y="22"
     inkscape:current-layer="layer1"
     inkscape:window-maximized="0">
    <sodipodi:guide
       orientation="horizontal"
       position="-3.1150078,218.05055"
       id="guide5596" />
    <sodipodi:guide
       orientation="0,1"
       position="311.50078,922.04232"
       id="guide6325" />
  </sodipodi:namedview>
  <metadata
     id="metadata5594">
    <rdf:RDF>
      <cc:Work
         rdf:about="">
        <dc:format>image/svg+xml</dc:format>
        <dc:type
           rdf:resource="http://purl.org/dc/dcmitype/StillImage" />
        <dc:title></dc:title>
      </cc:Work>
    </rdf:RDF>
  </metadata>
  <g
     inkscape:label="Layer 1"
     inkscape:groupmode="layer"
     id="layer1">
    <g
       id="g4626"
       transform="matrix(5.214412,0,0,-5.214412,687.01048,752.27612)" />
    <g
       id="g4934"
       transform="matrix(5.9836679,0,0,-5.9836679,689.72509,380.13864)"
       style="fill:#000000">
      <path
         d="m 0,0 c -2.702,8.989 -6.569,18.461 -16.475,26.821 -11.456,9.669 -21.495,13.096 -38.365,13.096 -17.606,0 -37.153,-12.637 -45.88,-24.854 l 10.517,-7.511 c 6.568,9.195 22.707,19.44 35.363,19.44 13.72,0 21.017,-2.44 30.029,-10.047 5.998,-5.063 9.485,-10.857 12.434,-20.666 2.51,-8.349 3.039,-17.811 1.528,-27.362 -0.953,-6.033 -2.534,-10.755 -4.836,-14.438 -2.543,-4.069 -6.167,-6.973 -9.943,-7.969 -2.896,-0.765 -6.253,-0.477 -9.212,0.786 -2.944,1.256 -5.651,3.514 -7.629,6.366 -0.214,0.307 -0.417,0.619 -0.613,0.937 l -11.259,-0.439 c -2.142,-4.184 -6.353,-7.259 -10.989,-8.021 -2.909,-0.478 -5.983,-0.075 -8.665,1.136 -2.683,1.211 -5.02,3.251 -6.583,5.745 -1.562,2.493 -2.38,5.487 -2.3,8.427 0.07,2.581 0.834,5.163 2.164,7.384 l 18.679,-0.047 0.432,0 c 2.862,0 5.687,0.099 8.661,0.944 3.794,1.076 7.134,3.26 9.409,6.156 2.495,3.178 3.769,7.301 3.494,11.313 -0.269,3.932 -1.955,7.701 -4.749,10.615 -3.624,3.782 -8.939,5.887 -14.51,5.803 -6.277,-0.102 -12.436,-3.033 -16.477,-7.84 l 9.894,-8.316 c 1.641,1.954 4.245,3.192 6.794,3.233 1.97,0.049 3.86,-0.667 4.97,-1.822 0.68,-0.711 1.122,-1.666 1.184,-2.556 0.058,-0.849 -0.228,-1.765 -0.764,-2.447 -0.59,-0.752 -1.601,-1.373 -2.775,-1.706 -1.509,-0.43 -3.383,-0.466 -5.528,-0.452 l -46.478,0.117 -0.032,-12.923 13.851,-0.036 c -0.673,-2.303 -1.073,-4.683 -1.138,-7.068 -0.148,-5.462 1.368,-11.018 4.268,-15.643 2.898,-4.626 7.237,-8.412 12.218,-10.661 3.613,-1.632 7.613,-2.474 11.595,-2.474 1.504,0 3.007,0.122 4.484,0.365 5.554,0.914 10.779,3.614 14.855,7.502 2.519,-2.308 5.376,-4.161 8.466,-5.48 5.631,-2.403 11.873,-2.898 17.577,-1.394 7.025,1.851 13.279,6.687 17.609,13.616 3.24,5.183 5.413,11.487 6.642,19.269 C 3.729,-21.645 3.066,-10.199 0,0 Z"
         style="fill:#000000;stroke:#191a21;stroke-width:1;stroke-linecap:butt;stroke-linejoin:miter;stroke-miterlimit:10;stroke-dasharray:none;stroke-opacity:1"
         id="path4936"
         inkscape:connector-curvature="0" />
    </g>
  </g>
</svg>
