<?xml version="1.0" encoding="UTF-8" standalone="no"?>
<!-- Created with Inkscape (http://www.inkscape.org/) -->

<svg
   xmlns:dc="http://purl.org/dc/elements/1.1/"
   xmlns:cc="http://creativecommons.org/ns#"
   xmlns:rdf="http://www.w3.org/1999/02/22-rdf-syntax-ns#"
   xmlns:svg="http://www.w3.org/2000/svg"
   xmlns="http://www.w3.org/2000/svg"
   xmlns:sodipodi="http://sodipodi.sourceforge.net/DTD/sodipodi-0.dtd"
   xmlns:inkscape="http://www.inkscape.org/namespaces/inkscape"
   width="1000"
   height="1000"
   id="svg6337"
   version="1.1"
   inkscape:version="0.48+devel+osxmenu r12707"
   viewBox="0 0 1000 1000"
   sodipodi:docname="i.svg">
  <defs
     id="defs5498" />
  <sodipodi:namedview
     inkscape:window-height="1002"
     inkscape:window-width="1680"
     inkscape:pageshadow="2"
     inkscape:pageopacity="0.0"
     borderopacity="1.0"
     bordercolor="#666666"
     pagecolor="#ffffff"
     id="base"
     showgrid="false"
     showguides="true"
     inkscape:guide-bbox="true"
     inkscape:zoom="0.64205296"
     inkscape:cx="1048.8717"
     inkscape:cy="465.23289"
     inkscape:window-x="0"
     inkscape:window-y="22"
     inkscape:current-layer="layer1"
     inkscape:window-maximized="0">
    <sodipodi:guide
       orientation="horizontal"
       position="-3.1150078,218.05055"
       id="guide5596" />
    <sodipodi:guide
       orientation="0,1"
       position="311.50078,922.04232"
       id="guide6325" />
  </sodipodi:namedview>
  <metadata
     id="metadata5594">
    <rdf:RDF>
      <cc:Work
         rdf:about="">
        <dc:format>image/svg+xml</dc:format>
        <dc:type
           rdf:resource="http://purl.org/dc/dcmitype/StillImage" />
        <dc:title></dc:title>
      </cc:Work>
    </rdf:RDF>
  </metadata>
  <g
     inkscape:label="Layer 1"
     inkscape:groupmode="layer"
     id="layer1">
    <g
       id="g4626"
       transform="matrix(5.214412,0,0,-5.214412,687.01048,752.27612)" />
    <g
       id="g4510"
       transform="matrix(8.1013069,0,0,-8.1013069,677.17769,194.65134)">
      <path
         d="m 0,0 c 2.655,2.713 6.134,4.54 9.792,5.146 2.068,0.342 4.161,0.283 5.995,-0.166 1.941,-0.473 3.677,-1.382 5.023,-2.626 1.515,-1.407 2.642,-3.35 3.259,-5.623 0.622,-2.288 0.679,-4.812 0.685,-7.415 l 0.036,-15.298 5.955,0.012 -0.036,15.302 c -0.008,3.016 -0.082,5.97 -0.893,8.957 C 28.907,1.642 27.19,4.557 24.854,6.72 22.766,8.654 20.12,10.053 17.199,10.765 14.556,11.41 11.71,11.496 8.82,11.019 2.415,9.961 -3.53,6.084 -7.085,0.649 l -0.44,-0.672"
         style="fill:#231f20;fill-opacity:1;fill-rule:nonzero;stroke:none"
         id="path4512"
         inkscape:connector-curvature="0" />
    </g>
  </g>
</svg>
