<?xml version="1.0" encoding="UTF-8" standalone="no"?>
<!-- Created with Inkscape (http://www.inkscape.org/) -->

<svg
   xmlns:dc="http://purl.org/dc/elements/1.1/"
   xmlns:cc="http://creativecommons.org/ns#"
   xmlns:rdf="http://www.w3.org/1999/02/22-rdf-syntax-ns#"
   xmlns:svg="http://www.w3.org/2000/svg"
   xmlns="http://www.w3.org/2000/svg"
   xmlns:sodipodi="http://sodipodi.sourceforge.net/DTD/sodipodi-0.dtd"
   xmlns:inkscape="http://www.inkscape.org/namespaces/inkscape"
   width="1000"
   height="1000"
   id="svg6337"
   version="1.1"
   inkscape:version="0.48+devel+osxmenu r12707"
   viewBox="0 0 1000 1000"
   sodipodi:docname="uu.svg">
  <defs
     id="defs5498" />
  <sodipodi:namedview
     inkscape:window-height="1002"
     inkscape:window-width="1680"
     inkscape:pageshadow="2"
     inkscape:pageopacity="0.0"
     borderopacity="1.0"
     bordercolor="#666666"
     pagecolor="#ffffff"
     id="base"
     showgrid="false"
     showguides="true"
     inkscape:guide-bbox="true"
     inkscape:zoom="0.64205296"
     inkscape:cx="675.07076"
     inkscape:cy="402.93273"
     inkscape:window-x="0"
     inkscape:window-y="22"
     inkscape:current-layer="layer1"
     inkscape:window-maximized="0">
    <sodipodi:guide
       orientation="horizontal"
       position="-3.1150078,218.05055"
       id="guide5596" />
    <sodipodi:guide
       orientation="0,1"
       position="311.50078,922.04232"
       id="guide6325" />
  </sodipodi:namedview>
  <metadata
     id="metadata5594">
    <rdf:RDF>
      <cc:Work
         rdf:about="">
        <dc:format>image/svg+xml</dc:format>
        <dc:type
           rdf:resource="http://purl.org/dc/dcmitype/StillImage" />
        <dc:title></dc:title>
      </cc:Work>
    </rdf:RDF>
  </metadata>
  <g
     inkscape:label="Layer 1"
     inkscape:groupmode="layer"
     id="layer1">
    <g
       id="g4626"
       transform="matrix(5.214412,0,0,-5.214412,687.01048,752.27612)" />
    <g
       id="g4722"
       transform="matrix(10.471651,0,0,-10.471651,652.20243,977.61814)">
      <path
         d="m 0,0 -3.074,1.15 c -4.063,1.523 -8.483,1.987 -12.778,1.344 -1.081,-0.161 -2.16,-0.391 -3.303,-0.637 -2.065,-0.441 -4.198,-0.896 -6.464,-0.959 -2.141,-0.058 -4.059,0.276 -5.673,0.996 -2.159,0.96 -3.839,2.662 -4.612,4.666 -0.51,1.326 -0.639,2.763 -0.365,4.161 0.273,1.398 0.93,2.683 1.905,3.719 l 3.981,-3.733 c -0.266,-0.282 -0.453,-0.65 -0.527,-1.031 -0.076,-0.381 -0.037,-0.791 0.1,-1.154 0.254,-0.658 0.904,-1.27 1.739,-1.644 0.862,-0.384 1.973,-0.56 3.301,-0.524 1.766,0.049 3.567,0.434 5.473,0.841 1.176,0.252 2.391,0.511 3.639,0.699 4.074,0.609 8.243,0.396 12.228,-0.609 0.138,2.172 0.024,4.353 -0.344,6.516 -0.453,2.646 -1.28,5.213 -2.461,7.626 l 4.902,2.399 C -0.922,20.944 0.067,17.879 0.606,14.72 1.257,10.905 1.245,7.038 0.57,3.23 L 0,0 Z"
         style="fill:#110f0d;fill-opacity:1;fill-rule:nonzero;stroke:none"
         id="path4724"
         inkscape:connector-curvature="0" />
    </g>
  </g>
</svg>
