<?xml version="1.0" encoding="UTF-8" standalone="no"?>
<!-- Created with Inkscape (http://www.inkscape.org/) -->

<svg
   xmlns:dc="http://purl.org/dc/elements/1.1/"
   xmlns:cc="http://creativecommons.org/ns#"
   xmlns:rdf="http://www.w3.org/1999/02/22-rdf-syntax-ns#"
   xmlns:svg="http://www.w3.org/2000/svg"
   xmlns="http://www.w3.org/2000/svg"
   xmlns:sodipodi="http://sodipodi.sourceforge.net/DTD/sodipodi-0.dtd"
   xmlns:inkscape="http://www.inkscape.org/namespaces/inkscape"
   width="1000"
   height="1000"
   id="svg6337"
   version="1.1"
   inkscape:version="0.48+devel+osxmenu r12707"
   viewBox="0 0 1000 1000"
   sodipodi:docname="v_e.svg">
  <defs
     id="defs5498" />
  <sodipodi:namedview
     inkscape:window-height="1002"
     inkscape:window-width="1680"
     inkscape:pageshadow="2"
     inkscape:pageopacity="0.0"
     borderopacity="1.0"
     bordercolor="#666666"
     pagecolor="#ffffff"
     id="base"
     showgrid="false"
     showguides="true"
     inkscape:guide-bbox="true"
     inkscape:zoom="0.454"
     inkscape:cx="429.3716"
     inkscape:cy="659.04324"
     inkscape:window-x="0"
     inkscape:window-y="22"
     inkscape:current-layer="layer1"
     inkscape:window-maximized="0">
    <sodipodi:guide
       orientation="horizontal"
       position="-3.1150078,218.05055"
       id="guide5596" />
    <sodipodi:guide
       orientation="0,1"
       position="311.50078,922.04232"
       id="guide6325" />
  </sodipodi:namedview>
  <metadata
     id="metadata5594">
    <rdf:RDF>
      <cc:Work
         rdf:about="">
        <dc:format>image/svg+xml</dc:format>
        <dc:type
           rdf:resource="http://purl.org/dc/dcmitype/StillImage" />
        <dc:title></dc:title>
      </cc:Work>
    </rdf:RDF>
  </metadata>
  <g
     inkscape:label="Layer 1"
     inkscape:groupmode="layer"
     id="layer1">
    <g
       id="g4626"
       transform="matrix(5.214412,0,0,-5.214412,687.01048,752.27612)" />
    <g
       id="g4702"
       transform="matrix(5.4781889,0,0,-5.4781889,866.59234,362.25281)">
      <path
         d="m 0,0 c -1.187,-1.271 -3.011,-2.039 -4.748,-1.996 -1.74,0.042 -3.523,0.891 -4.651,2.216 -1.13,1.323 -1.685,3.218 -1.45,4.943 0.162,1.181 0.696,2.493 1.545,3.794 0.857,1.316 2.067,2.683 3.7,4.185 1.303,1.198 2.731,2.358 4.243,3.585 0.898,0.729 1.808,1.466 2.716,2.234 0.003,-0.069 0.003,-0.141 0.004,-0.213 l 0.04,-2.286 C 1.441,13.934 1.487,11.396 1.506,8.854 1.194,1.763 0.223,0.255 0,0 m -111.551,-53.377 c -2.016,-2.956 -5.13724,-5.287268 -8.562,-6.399 -2.69324,-0.874268 -5.56892,-1.044615 -8.316,-0.495 -2.75092,0.550385 -5.30895,1.808203 -7.399,3.637 -2.06195,1.804204 -3.66955,4.21515 -4.527,6.791 -0.85755,2.57615 -0.88883,5.419749 -0.419,8.069 1.12841,6.362827 7.07493,12.88491 16.58437,13.224925 3.79757,0.135784 8.19063,-1.645925 10.85663,-4.354925 2.666,-2.709 4.33954,-6.437964 4.591,-10.23 0.23554,-3.551964 -0.785,-7.285 -2.809,-10.243 m 128.064,105.911 -15.363,0 c 0,-3.282 -1.92,-13.974 -6.243,-18.611 -1.689,-1.812 -3.76,-3.491 -5.952,-5.273 -1.624,-1.318 -3.304,-2.68 -4.952,-4.197 -2.591,-2.382 -4.61,-4.707 -6.175,-7.106 -2.11,-3.238 -3.42,-6.635 -3.895,-10.104 -0.823,-6.014 1.04,-12.367 4.976,-16.987 3.937,-4.619 9.912,-7.466 15.985,-7.605 1.648,-0.044 3.3,0.121 4.917,0.467 -0.908,-4.84 -2.27,-9.491 -4.296,-13.837 -5.507,-11.804 -16.241,-21.638 -29.446,-26.979 -8.355,-3.374 -17.7,-4.945 -26.656,-4.574 l 0,41.076 c 4.193,1.779 8.044,4.353 11.244,7.183 8.589,7.59 13.325,19.403 12.361,30.825 l -15.731,0.161 c 0.533,-6.325 -2.806,-14.417 -7.56,-18.619 -2.921,-2.583 -6.911,-4.563 -11.538,-5.729 -4.106,-1.033 -8.793,-1.493 -14.745,-1.467 -3.34,0.02 -6.679,0.184 -10.215,0.356 -8.091,0.398 -16.49694,1.0207581 -24.999,-0.605 -8.14099,-1.556715 -16.08473,-4.08611 -22.217,-8.726 -6.80615,-5.149776 -11.17305,-12.822807 -12.895,-20.357 -1.27484,-5.577932 -0.95,-11.422 0.864,-16.875 1.797,-5.402 5.01856,-10.243498 9.323,-14.009 4.25756,-3.724498 9.4538,-6.284014 15.028,-7.399 2.1198,-0.424015 4.274,-0.633 6.432,-0.633 3.453,0 6.90704,0.541878 10.218,1.616 6.92904,2.247878 12.99911,6.788925 17.097,12.788 4.12511,6.038925 6.128544,13.37197 5.646,20.646 -0.405456,6.11197 -2.634,12.142 -6.25,17.117 4.032333,-0.176232 8.362395,-0.396542 11.875,-0.423 3.977,-0.027 7.54,0.153 10.846,0.531 l -0.035,-50.875 6.866,-1.144 c 3.772,-0.551 7.563,-0.826 11.353,-0.826 10.056,0 20.065,1.93 29.445,5.722 16.769,6.781 30.478,19.438 37.609,34.727 6.752,14.482 7.545,30.159 7.438,45.642 z"
         style="fill:#373535;fill-opacity:1;fill-rule:nonzero;stroke:none"
         id="path4704"
         inkscape:connector-curvature="0"
         sodipodi:nodetypes="cccccccccccccssssssssccccccccccccccccccccccsssssssssscccccsccc" />
    </g>
  </g>
</svg>
